<svg xmlns="http://www.w3.org/2000/svg" viewBox="0 0 500 500">
    <g id="freepik--background-simple--inject-351">
        <path
            d="M160.19,65.92S84.42,104.52,46.63,164,11.83,300,57.75,356.8s133.69,49.34,207.18,85.32,154.57,28.57,189.32-47.66S436.6,289.74,427.6,201.52,339.07-15.88,160.19,65.92Z"
            style="fill:#92E3A9"></path>
        <path
            d="M160.19,65.92S84.42,104.52,46.63,164,11.83,300,57.75,356.8s133.69,49.34,207.18,85.32,154.57,28.57,189.32-47.66S436.6,289.74,427.6,201.52,339.07-15.88,160.19,65.92Z"
            style="fill:#fff;opacity:0.8"></path>
    </g>
    
    
    <g id="freepik--Clouds--inject-351">
        <path
            d="M408.47,77.63s.6-21.56-20.62-24.74-25.53,12-31.37,16.25-6.89-8.49-20.16-3.71S328.37,80.81,322,84.53s-8.63-6.13-18.57-4.78-7.87,12-12.2,14.32-9.16-.18-17.57-.88-9.66,9-9.66,9H432.87s4.25-15-4.24-20.33S410.59,80.81,408.47,77.63Z"
            style="fill:none;stroke:#828282;stroke-linecap:round;stroke-linejoin:round"></path>
        <path
            d="M429.7,139.62s4.45-12-7.45-13.74-18.43,6.6-21.7,9-3.87-4.76-11.31-2.08-4.46,8.63-8,10.71-4.84-3.44-10.41-2.68-4.41,6.74-6.84,8-5.13-.1-9.85-.5-5.42,5.06-5.42,5.06h94.69S445.76,145,441,142,430.89,141.41,429.7,139.62Z"
            style="fill:none;stroke:#828282;stroke-linecap:round;stroke-linejoin:round"></path>
        <path
            d="M127.7,209.62s4.45-12-7.45-13.74-18.43,6.6-21.7,9-3.87-4.76-11.31-2.08-4.46,8.63-8,10.71-4.84-3.44-10.41-2.68-4.41,6.74-6.84,8-5.13-.1-9.85-.5-5.42,5.06-5.42,5.06h94.69S143.76,215,139,212,128.89,211.41,127.7,209.62Z"
            style="fill:none;stroke:#828282;stroke-linecap:round;stroke-linejoin:round"></path>
    </g>
    
</svg>