<svg width="455" height="444" viewBox="0 0 455 444" fill="none" xmlns="http://www.w3.org/2000/svg">
<path d="M198.976 376.321L42.5734 375.412L27.0328 331.987L81.9847 327.234L72.4072 279.623L181.095 262.839L77.0177 219.735L86.2114 217.133L253.566 249.66L244.35 323.963L231.176 364.797L198.976 376.321Z" fill="#EAAB23"/>
<path d="M44.9723 357.225C44.9723 357.225 54.5681 355.396 60.3255 363.474C60.3255 363.474 56.1034 367.437 47.0194 361.95L44.9723 357.225Z" fill="#EAAB23"/>
<path d="M43.9672 357.045C43.9672 357.045 37.8441 366.022 40.8599 376.017C40.8599 376.017 45.8498 373.638 46.3935 361.52L43.9672 357.045Z" fill="#EAAB23"/>
<path d="M38.4656 342.287C38.4656 342.287 42.3039 333.898 57.6572 345.64C57.6572 345.64 55.6101 351.28 48.829 350.823C42.048 350.365 40.2568 346.707 38.4656 342.287Z" fill="#EAAB23"/>
<path d="M37.4739 341.682C37.4739 341.682 29.5093 340.594 28.7371 362.315C28.7371 362.315 33.7863 363.561 37.3733 356.691C40.9604 349.821 39.489 345.967 37.4739 341.682Z" fill="#EAAB23"/>
<path d="M32.8362 324.355C32.8362 324.355 37.3142 309.569 53.5631 320.087C53.5631 320.087 49.8527 333.653 34.4994 329.385L32.8362 324.355Z" fill="#EAAB23"/>
<path d="M27.8462 302.253C27.8462 302.253 36.2905 287.315 51.2599 301.164C51.2599 301.164 46.0142 315.188 29.1256 307.566L27.8462 302.253Z" fill="#EAAB23"/>
<path d="M26.0551 281.218C26.0551 281.218 35.9067 267.494 50.73 281.218C50.73 281.218 41.3901 293.26 26.0551 284.724V281.218Z" fill="#EAAB23"/>
<path d="M24.5198 260.787C24.5198 260.787 34.4994 246.459 48.7011 260.025C48.7011 260.025 37.4421 272.676 24.5198 264.141V260.787Z" fill="#EAAB23"/>
<path d="M25.4153 242.648C25.4153 242.648 35.925 224.205 49.2129 236.704C49.2129 236.704 37.9538 252.556 25.4153 246.154V242.648Z" fill="#EAAB23"/>
<path d="M27.8462 221.461C27.8462 221.461 38.9773 203.17 51.8997 217.193C51.8997 217.193 38.7214 233.045 27.8462 224.814V221.461Z" fill="#EAAB23"/>
<path d="M31.5566 202.522C31.5566 202.522 44.7348 185.33 56.2314 192.179C56.2314 192.179 42.5003 210.437 30.9808 207.084L31.5566 202.522Z" fill="#EAAB23"/>
<path d="M36.1626 184.568C36.1626 184.568 51.3697 163.511 60.2161 170.545C60.2161 170.545 49.0119 186.876 35.0842 188.509L36.1626 184.568Z" fill="#EAAB23"/>
<path d="M42.8111 163.745C42.8111 163.745 56.1218 146.554 65.8455 150.822C65.8455 150.822 54.4585 168.656 41.0244 169.113L42.8111 163.745Z" fill="#EAAB23"/>
<path d="M48.8291 144.268C48.8291 144.268 63.5426 127.805 69.9398 130.701C69.9398 130.701 59.3204 148.993 48.1893 147.926L48.8291 144.268Z" fill="#EAAB23"/>
<path d="M54.7144 126.281C54.7144 126.281 67.3808 106.613 74.2943 108.137C74.2943 108.137 66.6131 125.671 54.7144 128.279V126.281Z" fill="#EAAB23"/>
<path d="M61.1024 102.029C61.1024 102.029 72.2975 86.9549 78.3474 86.9875C78.3474 86.9875 69.5101 107.13 60.6409 106.945L61.1024 102.029Z" fill="#EAAB23"/>
<path d="M64.886 85.8825L75.7019 54.4825C75.7019 54.4825 76.2411 82.8666 63.5106 91.7074L64.886 85.8825Z" fill="#EAAB23"/>
<path d="M69.2771 51.2543C69.2771 51.2543 71.0683 25.0314 69.9168 22.8974C69.9168 22.8974 77.6483 44.6999 69.204 62.8388L69.2771 51.2543Z" fill="#EAAB23"/>
<path d="M32.4158 324.006C32.4158 324.006 21.2024 315.726 13.9415 335.983C13.9415 335.983 23.9212 343.876 33.7363 329.173L32.4158 324.006Z" fill="#EAAB23"/>
<path d="M27.4854 301.409C27.4854 301.409 13.7314 293.935 7.06006 315.084C7.06006 315.084 17.684 323.794 28.7374 306.755L27.4854 301.409Z" fill="#EAAB23"/>
<path d="M25.4153 282.475C25.4153 282.475 15.5637 268.751 0.740479 282.475C0.740479 282.475 10.0804 294.517 25.4153 285.981V282.475Z" fill="#EAAB23"/>
<path d="M24.1819 260.787C24.1819 260.787 14.2022 246.459 0.000488281 260.025C0.000488281 260.025 11.2595 272.676 24.1819 264.141V260.787Z" fill="#EAAB23"/>
<path d="M25.4154 243.171C25.4154 243.171 18.415 222.512 3.19885 231.396C3.19885 231.396 11.4238 249.714 24.7939 246.601L25.4154 243.171Z" fill="#EAAB23"/>
<path d="M28.7282 221.357C28.7282 221.357 21.769 200.339 6.33801 210.083C6.33801 210.083 15.7876 229.349 28.0428 224.602L28.7282 221.357Z" fill="#EAAB23"/>
<path d="M33.0417 202.625C33.0417 202.625 30.3 179.582 17.5056 177.518C17.5056 177.518 20.2199 201.82 31.319 206.779L33.0417 202.625Z" fill="#EAAB23"/>
<path d="M36.487 184.612C36.487 184.612 35.4178 156.848 24.8395 155.879C24.8395 155.879 25.1959 176.952 35.2944 188.542L36.487 184.612Z" fill="#EAAB23"/>
<path d="M43.9079 162.967C43.9079 162.967 40.755 139.88 30.6566 137.06C30.6566 137.06 31.9086 159.418 42.9072 168.634L43.9079 162.967Z" fill="#EAAB23"/>
<path d="M50.0263 144.458C50.0263 144.458 49.9212 120.407 43.7524 116.874C43.7524 116.874 39.9278 138.649 48.2396 147.528L50.0263 144.458Z" fill="#EAAB23"/>
<path d="M55.185 126.009C55.185 126.009 54.3214 101.245 47.9334 97.7554C47.9334 97.7554 45.7492 117.353 54.23 127.631L55.185 126.009Z" fill="#EAAB23"/>
<path d="M61.9936 104.005C61.9936 104.005 61.957 83.8628 57.3968 79.1376C57.3968 79.1376 52.8639 101.201 59.6129 108.055L61.9936 104.005Z" fill="#EAAB23"/>
<path d="M64.3514 84.8917L59.9145 51.3687C59.9145 51.3687 53.8875 78.8382 64.5616 90.9453L64.3514 84.8917Z" fill="#EAAB23"/>
<path d="M65.2149 51.57C65.2149 51.57 53.8279 29.0326 54.0609 26.5284C54.0609 26.5284 55.2718 50.1492 69.5969 61.9133L65.2149 51.57Z" fill="#EAAB23"/>
<path d="M66.5492 44.9122C66.5492 44.9122 55.8019 12.9025 50.9401 10.3113C50.9401 10.3113 66.2933 19.6093 67.4448 43.9977L66.5492 44.9122Z" fill="#EAAB23"/>
<path d="M60.5861 107.135L59.8505 106.868C68.9207 71.6306 71.1825 49.1639 66.2248 43.5296L66.7502 42.8654C72.0096 48.8101 69.8757 71.0318 60.5861 107.135Z" fill="#444053"/>
<path d="M35.6096 189.642L34.5221 189.179C35.4862 185.951 36.5235 182.674 37.611 179.446C47.0789 151.334 55.1393 125.182 60.3074 105.105L61.2532 104.56C56.0761 124.675 48.1573 151.829 38.6803 179.979C37.5973 183.147 36.5646 186.408 35.6096 189.642Z" fill="#444053"/>
<path d="M58.4933 383.594C58.3471 383.404 43.6473 363.681 33.3981 330.011C27.3927 310.298 24.0505 289.576 23.4962 268.615C22.7925 242.414 27.4076 213.159 35.3127 186.582L36.1718 187.78C18.4242 247.428 25.4748 298.54 34.8283 329.32C44.9679 362.685 59.5032 382.19 59.6448 382.386L58.4933 383.594Z" fill="#444053"/>
<path d="M288.207 341.721C288.207 341.721 277.848 356.784 286.073 379.555L203.367 422.289L195.43 424.271L191.774 405.217L194.219 381.172V368.031L288.207 341.721Z" fill="#D5D6DB"/>
<path d="M27.0328 331.987L141.506 307.125L293.188 335.912L198.976 376.321L27.0328 331.987Z" fill="#EAAB23"/>
<path d="M27.0328 331.987L141.506 307.125L293.188 335.912L198.976 376.321L27.0328 331.987Z" fill="#EAAB23"/>
<path d="M27.0331 331.982C27.0331 331.982 16.3269 356.147 28.6643 378.466L198.418 422.289C198.418 422.289 187.881 403.04 198.962 376.322L27.0331 331.982Z" fill="#EAAB23"/>
<path opacity="0.1" d="M27.0331 331.982C27.0331 331.982 16.3269 356.147 28.6643 378.466L198.418 422.289C198.418 422.289 187.881 403.04 198.962 376.322L27.0331 331.982Z" fill="black"/>
<path opacity="0.1" d="M32.0912 340.359C32.0912 340.359 25.9729 358.041 32.0912 369.484V340.359Z" fill="black"/>
<path d="M198.418 422.289L293.188 374.111C293.188 374.111 298.488 375.472 295.061 380.1C291.634 384.727 200.246 426.916 200.246 426.916L28.6642 378.466L198.418 422.289Z" fill="#EAAB23"/>
<path opacity="0.1" d="M198.418 422.289L293.188 374.111C293.188 374.111 298.488 375.472 295.061 380.1C291.634 384.727 200.246 426.916 200.246 426.916L28.6642 378.466L198.418 422.289Z" fill="black"/>
<path opacity="0.1" d="M190.65 381.188C190.65 381.188 181.511 394.254 190.65 413.851V381.188Z" fill="black"/>
<path opacity="0.1" d="M234.895 380.967L193.903 397.26L194.047 397.777L235.039 381.484L234.895 380.967Z" fill="black"/>
<path opacity="0.1" d="M243.105 379.346L193.89 401.642L194.052 402.151L243.267 379.855L243.105 379.346Z" fill="black"/>
<path opacity="0.1" d="M250.645 379.268L194.164 406.81L194.337 407.314L250.818 379.772L250.645 379.268Z" fill="black"/>
<path opacity="0.1" d="M258.845 376.909L194.824 411.364L195.012 411.86L259.033 377.405L258.845 376.909Z" fill="black"/>
<path opacity="0.1" d="M265.734 376.921L195.331 413.582L195.514 414.081L265.917 377.419L265.734 376.921Z" fill="black"/>
<path opacity="0.1" d="M280.801 373.872L196.392 417.306L196.573 417.805L280.983 374.372L280.801 373.872Z" fill="black"/>
<path opacity="0.3" d="M69.5604 334.644L149.982 314.501L198.976 325.661L133.075 350.975L69.5604 334.644Z" fill="white"/>
<path d="M293.188 335.912C293.188 335.912 297.346 337.91 294.906 340.996C292.466 344.083 198.962 376.321 198.962 376.321L293.188 335.912Z" fill="#EAAB23"/>
<path d="M333.577 289.362C333.577 289.362 323.223 304.419 331.448 327.196L248.741 369.93L240.804 371.923L237.148 352.869L239.63 328.83V315.672L333.577 289.362Z" fill="#D5D6DB"/>
<path d="M72.4072 279.623L186.876 254.766L338.562 283.553L244.35 323.963L72.4072 279.623Z" fill="#3A3768"/>
<path d="M72.389 279.623C72.389 279.623 61.6783 303.788 74.0157 326.108L243.77 369.93C243.77 369.93 233.237 350.665 244.332 323.957L72.389 279.623Z" fill="#3A3768"/>
<path opacity="0.1" d="M72.389 279.623C72.389 279.623 61.6783 303.788 74.0157 326.108L243.77 369.93C243.77 369.93 233.237 350.665 244.332 323.957L190.65 310.114L72.389 279.623Z" fill="black"/>
<path opacity="0.1" d="M77.4609 288.001C77.4609 288.001 71.3471 305.677 77.4609 317.125V288.001Z" fill="black"/>
<path d="M243.788 369.93L338.562 321.752C338.562 321.752 343.858 323.113 340.431 327.741C337.004 332.368 245.616 374.558 245.616 374.558L74.0338 326.108L243.788 369.93Z" fill="#3A3768"/>
<path opacity="0.1" d="M243.788 369.93L338.562 321.752C338.562 321.752 343.858 323.113 340.431 327.741C337.004 332.368 245.616 374.558 245.616 374.558L74.0338 326.108L243.788 369.93Z" fill="black"/>
<path opacity="0.1" d="M236.02 328.83C236.02 328.83 226.881 341.895 236.02 361.493V328.83Z" fill="black"/>
<path opacity="0.1" d="M280.268 328.614L239.276 344.907L239.421 345.424L280.413 329.131L280.268 328.614Z" fill="black"/>
<path opacity="0.1" d="M288.484 326.99L239.269 349.286L239.431 349.795L288.646 327.499L288.484 326.99Z" fill="black"/>
<path opacity="0.1" d="M296.018 326.905L239.537 354.447L239.71 354.951L296.191 327.409L296.018 326.905Z" fill="black"/>
<path opacity="0.1" d="M304.223 324.547L240.201 359.002L240.39 359.498L304.411 325.044L304.223 324.547Z" fill="black"/>
<path opacity="0.1" d="M311.105 324.552L240.702 361.214L240.885 361.712L311.288 325.05L311.105 324.552Z" fill="black"/>
<path opacity="0.1" d="M326.176 321.503L241.766 364.937L241.948 365.437L326.357 322.003L326.176 321.503Z" fill="black"/>
<path opacity="0.45" d="M114.935 282.285L195.357 262.143L244.35 273.303L178.45 298.616L114.935 282.285Z" fill="white"/>
<path d="M338.562 283.553C338.562 283.553 342.716 285.551 340.28 288.632C337.845 291.714 244.35 323.957 244.35 323.957L338.562 283.553Z" fill="#3A3768"/>
<path d="M337.872 229.463C337.872 229.463 327.513 256.503 335.738 279.274L253.032 310.032L245.113 312.03L241.457 292.976L243.902 268.931V255.773L337.872 229.463Z" fill="#D5D6DB"/>
<path d="M76.7161 219.73L191.189 194.868L342.876 223.655L248.659 264.064L76.7161 219.73Z" fill="#EAAB23"/>
<path d="M76.7163 219.724C76.7163 219.724 65.9919 243.89 78.3293 266.209L248.083 310.032C248.083 310.032 237.546 290.766 248.641 264.064L76.7163 219.724Z" fill="#EAAB23"/>
<path opacity="0.1" d="M76.7163 219.724C76.7163 219.724 65.9919 243.89 78.3293 266.209L248.083 310.032C248.083 310.032 237.546 290.766 248.641 264.064L76.7163 219.724Z" fill="black"/>
<path opacity="0.1" d="M81.7744 228.102C81.7744 228.102 75.6559 245.784 81.7744 257.227V228.102Z" fill="black"/>
<path d="M248.101 310.032L342.871 273.831C342.871 273.831 348.172 275.192 344.745 279.819C341.318 284.446 249.929 314.659 249.929 314.659L78.3475 266.209L248.101 310.032Z" fill="#EAAB23"/>
<path opacity="0.1" d="M248.101 310.032L342.871 273.831C342.871 273.831 348.172 275.192 344.745 279.819C341.318 284.446 249.929 314.659 249.929 314.659L78.3475 266.209L248.101 310.032Z" fill="black"/>
<path opacity="0.1" d="M240.333 268.931C240.333 268.931 231.195 281.996 240.333 301.594V268.931Z" fill="black"/>
<path opacity="0.1" d="M284.583 268.715L243.591 285.008L243.735 285.524L284.727 269.231L284.583 268.715Z" fill="black"/>
<path opacity="0.1" d="M292.796 267.094L243.58 289.39L243.743 289.899L292.958 267.603L292.796 267.094Z" fill="black"/>
<path opacity="0.1" d="M300.325 267.011L243.844 294.553L244.017 295.057L300.498 267.515L300.325 267.011Z" fill="black"/>
<path opacity="0.1" d="M308.537 264.648L244.515 299.103L244.703 299.599L308.725 265.145L308.537 264.648Z" fill="black"/>
<path opacity="0.1" d="M315.421 264.658L245.018 301.32L245.201 301.819L315.604 265.157L315.421 264.658Z" fill="black"/>
<path opacity="0.1" d="M330.49 261.613L246.081 305.047L246.262 305.546L330.672 262.113L330.49 261.613Z" fill="black"/>
<path opacity="0.3" d="M119.244 222.386L199.665 202.244L248.659 213.404L182.759 238.718L119.244 222.386Z" fill="white"/>
<path d="M342.871 223.655C342.871 223.655 347.029 225.653 344.589 228.739C342.149 231.826 248.659 264.064 248.659 264.064L342.871 223.655Z" fill="#EAAB23"/>
<path d="M141.844 58.402C141.844 58.402 124.48 57.1554 126.509 71.6686C126.509 71.6686 126.102 74.2327 128.054 75.3976C128.054 75.3976 128.086 74.3089 129.836 74.6845C130.46 74.8123 131.095 74.8489 131.727 74.7934C132.579 74.7239 133.389 74.3265 134.035 73.6611C134.035 73.6611 138.92 71.2549 140.821 61.7391C140.821 61.7391 142.228 59.665 142.191 59.1315L139.249 60.6231C139.249 60.6231 140.249 63.1436 139.463 65.2395C139.463 65.2395 139.367 60.7157 138.801 60.8191C138.687 60.8191 137.279 61.6955 137.279 61.6955C137.279 61.6955 139.002 66.0887 137.7 69.2788C137.7 69.2788 138.193 63.8676 136.74 62.0113L134.675 63.4485C134.675 63.4485 136.69 67.9832 135.324 71.685C135.324 71.685 135.675 66.0071 134.241 63.7969L132.367 65.5389C132.367 65.5389 134.263 70.0083 133.107 73.0786C133.107 73.0786 132.957 66.4698 131.965 65.9689C131.965 65.9689 130.325 67.6892 130.078 68.3969C130.078 68.3969 131.376 71.6632 130.567 73.3562C130.567 73.3562 130.078 68.9522 129.653 68.9304C129.653 68.9304 128.022 71.8483 127.853 73.8298C127.932 71.9825 128.415 70.192 129.255 68.6364C128.315 68.8483 127.448 69.3839 126.76 70.177C126.76 70.177 127.012 68.1138 129.662 67.9342C129.662 67.9342 131.01 65.7185 131.371 65.5879C131.371 65.5879 128.734 65.3211 127.14 66.1649C127.14 66.1649 128.547 64.2215 131.851 65.0762L133.679 63.2797C133.679 63.2797 130.215 62.7353 128.744 63.3396C128.744 63.3396 130.439 61.6193 134.177 62.8714L136.192 61.4397C136.192 61.4397 133.235 60.683 131.476 60.9552C131.476 60.9552 133.331 59.763 136.781 61.0532L138.216 60.2856C138.216 60.2856 136.055 59.7793 135.42 59.6977C134.784 59.616 134.752 59.4091 134.752 59.4091C136.124 59.1407 137.532 59.3291 138.819 59.9535C138.819 59.9535 141.904 58.6307 141.844 58.402Z" fill="#EAAB23"/>
<path d="M386.125 118.055C386.125 118.055 368.762 116.809 370.79 131.322C370.79 131.322 370.384 133.886 372.335 135.051C372.335 135.051 372.367 133.962 374.117 134.338C374.742 134.463 375.377 134.499 376.009 134.447C376.853 134.373 377.654 133.976 378.293 133.315C378.293 133.315 383.183 130.908 385.079 121.393C385.079 121.393 386.486 119.318 386.45 118.785L383.516 120.277C383.516 120.277 384.517 122.797 383.731 124.893C383.731 124.893 383.635 120.369 383.073 120.473C382.959 120.473 381.547 121.349 381.547 121.349C381.547 121.349 383.27 125.742 381.972 128.932C381.972 128.932 382.465 123.521 381.008 121.665L378.942 123.102C378.942 123.102 380.957 127.637 379.591 131.338C379.591 131.338 379.943 125.66 378.508 123.45L376.639 125.192C376.639 125.192 378.531 129.662 377.375 132.732C377.375 132.732 377.224 126.123 376.233 125.622C376.233 125.622 374.597 127.343 374.345 128.05C374.345 128.05 375.643 131.317 374.839 133.01C374.839 133.01 374.345 128.606 373.925 128.584C373.925 128.584 372.294 131.502 372.125 133.483C372.204 131.635 372.689 129.844 373.532 128.29C372.591 128.502 371.722 129.038 371.033 129.83C371.033 129.83 371.288 127.767 373.934 127.588C373.934 127.588 375.282 125.372 375.643 125.236C375.643 125.236 373.011 124.975 371.412 125.818C371.412 125.818 372.819 123.875 376.123 124.73L377.951 122.933C377.951 122.933 374.482 122.389 373.016 122.993C373.016 122.993 374.706 121.273 378.449 122.525L380.459 121.093C380.459 121.093 377.503 120.336 375.744 120.609C375.744 120.609 377.599 119.416 381.049 120.707L382.488 119.939C382.488 119.939 380.322 119.433 379.687 119.351C379.052 119.269 379.02 119.063 379.02 119.063C380.392 118.791 381.8 118.979 383.087 119.607C383.087 119.607 386.18 118.284 386.125 118.055Z" fill="#EAAB23"/>
<path d="M171.088 148.062C171.088 148.062 163.521 129.373 153.889 138.584C153.889 138.584 151.81 139.412 151.91 142.008C151.91 142.008 152.71 141.513 153.281 143.516C153.495 144.224 153.777 144.9 154.122 145.53C154.59 146.385 155.278 147.034 156.082 147.381C156.082 147.381 160.227 151.29 168.127 148.623C168.127 148.623 170.334 149.074 170.695 148.759L168.173 146.434C168.173 146.434 166.802 148.704 164.892 148.906C164.892 148.906 168.164 146.603 167.812 146.069C167.739 145.961 166.441 144.91 166.441 144.91C166.441 144.91 164.06 148.846 161.09 149.047C161.09 149.047 165.294 146.924 165.943 144.502L163.887 143.054C163.887 143.054 161.543 147.365 158.166 147.746C158.166 147.746 162.498 145.345 163.416 142.776L161.232 141.687C161.232 141.687 158.879 145.835 156.064 146.135C156.064 146.135 160.834 142.754 160.716 141.475C160.716 141.475 158.655 140.615 158.015 140.696C158.015 140.696 156.27 143.631 154.625 143.631C154.625 143.631 157.608 140.969 157.426 140.538C157.426 140.538 154.492 140.266 152.948 141.083C154.339 140.259 155.888 139.883 157.439 139.994C156.824 139.12 156.008 138.478 155.091 138.149C155.091 138.149 156.727 137.408 158.148 140.07C158.148 140.07 160.432 140.392 160.702 140.702C160.702 140.702 159.61 137.838 158.216 136.592C158.216 136.592 160.327 137.098 161.291 140.947L163.508 141.992C163.508 141.992 162.233 138.116 161.058 136.891C161.058 136.891 163.142 137.811 164.051 142.335L166.08 143.729C166.08 143.729 165.198 140.283 164.138 138.59C164.138 138.59 165.916 139.94 166.651 144.153L167.917 145.275C167.917 145.275 167.232 142.776 167.003 142.079C166.775 141.382 166.889 141.241 166.889 141.241C167.758 142.533 168.309 144.088 168.479 145.732C168.479 145.732 170.924 148.225 171.088 148.062Z" fill="#EAAB23"/>
<path d="M346.454 91.653C346.454 91.653 338.891 72.9643 329.255 82.1753C329.255 82.1753 327.18 83.0027 327.276 85.5994C327.276 85.5994 328.08 85.1095 328.647 87.1074C328.86 87.8185 329.144 88.4965 329.492 89.127C329.958 89.9795 330.645 90.6275 331.448 90.9725C331.448 90.9725 335.597 94.8812 343.493 92.2191C343.493 92.2191 345.7 92.6655 346.065 92.3498L343.557 90.0198C343.557 90.0198 342.186 92.2954 340.281 92.4968C340.281 92.4968 343.548 90.1886 343.196 89.6551C343.123 89.5462 341.825 88.4956 341.825 88.4956C341.825 88.4956 339.449 92.4314 336.474 92.6329C336.474 92.6329 340.683 90.5098 341.332 88.0927L339.243 86.6556C339.243 86.6556 336.904 90.9616 333.522 91.3481C333.522 91.3481 337.854 88.942 338.777 86.3725L336.588 85.2837C336.588 85.2837 334.235 89.4373 331.425 89.7313C331.425 89.7313 336.191 86.3507 336.072 85.0768C336.072 85.0768 334.016 84.2113 333.376 84.2984C333.376 84.2984 331.631 87.2271 329.981 87.2271C329.981 87.2271 332.969 84.5651 332.787 84.1351C332.787 84.1351 329.853 83.8629 328.304 84.6794C329.696 83.8551 331.244 83.4797 332.796 83.5907C332.183 82.7158 331.368 82.0742 330.452 81.7452C330.452 81.7452 332.088 81.0049 333.509 83.6669C333.509 83.6669 335.793 83.9935 336.063 84.3038C336.063 84.3038 334.971 81.4349 333.573 80.1883C333.573 80.1883 335.684 80.7 336.648 84.5706L338.869 85.6158C338.869 85.6158 337.594 81.7343 336.419 80.5095C336.419 80.5095 338.503 81.4295 339.408 85.9533L341.441 87.3469C341.441 87.3469 340.555 83.9064 339.495 82.2079C339.495 82.2079 341.277 83.558 342.008 87.7715L343.274 88.893C343.274 88.893 342.593 86.3942 342.36 85.6974C342.127 85.0006 342.245 84.8645 342.245 84.8645C343.112 86.1582 343.661 87.7128 343.831 89.3557C343.831 89.3557 346.312 91.8272 346.454 91.653Z" fill="#EAAB23"/>
<path d="M370.621 184.095C370.621 184.095 363.059 165.4 353.408 174.611C353.408 174.611 351.334 175.439 351.43 178.036C351.43 178.036 352.234 177.546 352.801 179.543C353.012 180.254 353.294 180.932 353.641 181.563C354.107 182.416 354.794 183.064 355.597 183.409C355.597 183.409 359.746 187.323 367.647 184.655C367.647 184.655 369.849 185.107 370.215 184.786L367.692 182.461C367.692 182.461 366.322 184.737 364.412 184.938C364.412 184.938 367.679 182.63 367.327 182.097C367.254 181.988 365.956 180.937 365.956 180.937C365.956 180.937 363.58 184.873 360.605 185.08C360.605 185.08 364.814 182.951 365.462 180.534L363.402 179.086C363.402 179.086 361.062 183.398 357.681 183.779C357.681 183.779 362.013 181.373 362.936 178.803L360.747 177.714C360.747 177.714 358.394 181.863 355.583 182.162C355.583 182.162 360.354 178.781 360.235 177.502C360.235 177.502 358.174 176.636 357.535 176.724C357.535 176.724 355.789 179.652 354.139 179.652C354.139 179.652 357.128 176.99 356.945 176.56C356.945 176.56 354.011 176.288 352.462 177.105C353.856 176.281 355.406 175.905 356.959 176.016C356.345 175.14 355.528 174.498 354.61 174.17C354.61 174.17 356.246 173.425 357.667 176.092C357.667 176.092 359.952 176.413 360.221 176.724C360.221 176.724 359.129 173.86 357.736 172.608C357.736 172.608 359.847 173.12 360.811 176.99L363.027 178.036C363.027 178.036 361.752 174.154 360.578 172.935C360.578 172.935 362.661 173.849 363.566 178.378L365.6 179.767C365.6 179.767 364.713 176.326 363.653 174.628C363.653 174.628 365.435 175.978 366.171 180.197L367.436 181.286C367.436 181.286 366.751 178.787 366.523 178.09C366.294 177.393 366.408 177.257 366.408 177.257C367.277 178.549 367.826 180.105 367.994 181.748C367.994 181.748 370.48 184.258 370.621 184.095Z" fill="#EAAB23"/>
<path opacity="0.1" d="M92.2796 427.308C98.0814 427.308 102.785 426.682 102.785 425.909C102.785 425.137 98.0814 424.51 92.2796 424.51C86.4778 424.51 81.7745 425.137 81.7745 425.909C81.7745 426.682 86.4778 427.308 92.2796 427.308Z" fill="#EAAB23"/>
<path opacity="0.1" d="M23.4139 403.53C29.2157 403.53 33.9189 402.903 33.9189 402.131C33.9189 401.358 29.2157 400.732 23.4139 400.732C17.6121 400.732 12.9088 401.358 12.9088 402.131C12.9088 402.903 17.6121 403.53 23.4139 403.53Z" fill="#EAAB23"/>
<path opacity="0.1" d="M144.773 443.101C150.575 443.101 155.278 442.475 155.278 441.702C155.278 440.929 150.575 440.303 144.773 440.303C138.971 440.303 134.268 440.929 134.268 441.702C134.268 442.475 138.971 443.101 144.773 443.101Z" fill="#EAAB23"/>
<path opacity="0.1" d="M413.775 408.701C419.577 408.701 424.28 408.075 424.28 407.302C424.28 406.53 419.577 405.903 413.775 405.903C407.973 405.903 403.27 406.53 403.27 407.302C403.27 408.075 407.973 408.701 413.775 408.701Z" fill="#EAAB23"/>
<path opacity="0.1" d="M326.357 401.913C332.159 401.913 336.862 401.286 336.862 400.514C336.862 399.741 332.159 399.115 326.357 399.115C320.556 399.115 315.852 399.741 315.852 400.514C315.852 401.286 320.556 401.913 326.357 401.913Z" fill="#EAAB23"/>
<path opacity="0.1" d="M269.806 435.022C276.668 435.022 282.23 433.884 282.23 432.48C282.23 431.076 276.668 429.938 269.806 429.938C262.944 429.938 257.382 431.076 257.382 432.48C257.382 433.884 262.944 435.022 269.806 435.022Z" fill="#EAAB23"/>
<path d="M275.349 406.927C275.349 406.927 258.049 417.575 266.987 430.117C266.987 430.117 267.828 432.839 270.259 432.649C270.259 432.649 269.774 431.593 271.629 430.749C272.29 430.445 272.917 430.048 273.498 429.568C274.284 428.921 274.871 427.986 275.171 426.906C275.171 426.906 278.708 421.266 275.966 410.83C275.966 410.83 276.322 407.879 276.012 407.4L273.91 410.835C273.91 410.835 276.08 412.572 276.331 415.125C276.331 415.125 274.047 410.841 273.59 411.314C273.489 411.412 272.548 413.193 272.548 413.193C272.548 413.193 276.313 416.236 276.592 420.188C276.592 420.188 274.472 414.652 272.182 413.862L270.871 416.649C270.871 416.649 274.983 419.633 275.44 424.118C275.44 424.118 273.051 418.43 270.61 417.281L269.646 420.226C269.646 420.226 273.613 423.231 273.978 426.965C273.978 426.965 270.661 420.721 269.468 420.917C269.468 420.917 268.719 423.683 268.819 424.538C268.819 424.538 271.62 426.769 271.671 428.963C271.671 428.963 269.084 425.071 268.687 425.327C268.687 425.327 268.522 429.241 269.317 431.277C269.317 431.277 267.947 428.37 268.17 425.327C267.369 426.171 266.792 427.276 266.512 428.506C266.512 428.506 265.767 426.356 268.221 424.374C268.221 424.374 268.454 421.331 268.737 420.955C268.737 420.955 266.082 422.502 264.953 424.396C264.953 424.396 265.369 421.571 268.97 420.166L269.884 417.183C269.884 417.183 266.283 419.001 265.173 420.602C265.173 420.602 265.972 417.798 270.167 416.453L271.41 413.732C271.41 413.732 268.212 415.016 266.649 416.453C266.649 416.453 267.86 414.042 271.794 412.931L272.804 411.216C272.804 411.216 270.483 412.202 269.834 412.556C269.185 412.909 269.057 412.735 269.057 412.735C270.243 411.54 271.684 410.76 273.22 410.482C273.22 410.482 275.509 407.112 275.349 406.927Z" fill="#EAAB23"/>
<path d="M326.696 205.815C323.707 196.141 307.257 195.232 300.12 197.698C295.048 199.457 284.355 201.438 278.644 202.435L278.273 202.015C279.014 201.754 279.032 201.112 278.941 200.159C278.887 198.903 278.903 197.645 278.986 196.392C282.486 197.688 285.603 194.623 285.603 194.623C289.715 192.445 288.609 183.125 289.395 180.578C289.985 178.672 290.62 167.447 290.903 161.851H290.963L290.995 159.973C291.036 159.162 291.054 158.688 291.054 158.688C291.054 158.688 291.456 145.002 292.242 142.231C292.973 139.684 293.567 126.847 293.659 124.811C293.659 124.637 293.659 124.544 293.659 124.544L293.599 123.358C293.64 122.492 293.659 121.528 293.654 120.516C293.654 115.861 293.247 109.998 293.197 109.051C293.197 108.915 293.197 108.752 293.197 108.556C293.229 106.569 293.019 96.6175 285.914 92.8558C283.295 91.4622 280.147 89.8018 277.099 88.185C276.313 80.1009 274.517 72.0604 274.673 63.9164C274.673 62.6916 274.764 61.4667 274.865 60.2473C274.865 60.6011 274.833 60.9604 274.828 61.336C274.828 62.1254 274.828 62.9202 274.828 63.7096C275.098 53.5242 278.328 43.2843 278.027 33.3167C277.999 34.2911 277.94 35.271 277.862 36.2509C278.02 32.8795 277.724 29.4996 276.985 26.2397C276.711 25.0911 276.341 23.9043 275.55 23.1367C274.803 22.5185 273.946 22.1143 273.046 21.9554C270.884 21.2961 268.687 20.8087 266.471 20.4965C266.134 19.2682 265.634 18.1122 264.99 17.0723C260.357 9.49451 253.493 2.37399 245.378 0.740839C241.307 -0.0757351 236.623 0.604742 233.854 4.07246C233.565 4.37709 233.293 4.70445 233.041 5.05235C231.551 7.16999 230.911 9.95179 229.385 12.064C229.285 12.2055 229.17 12.3362 229.061 12.4723C226.072 15.6569 221.416 16.3211 218.094 19.1791C217.509 19.6921 216.96 20.2621 216.454 20.883C215.115 22.4633 213.915 24.2015 212.871 26.071C211.377 28.5751 209.842 31.1827 209.367 34.1714C208.412 40.1596 211.834 45.8375 212.469 51.8638C213.886 65.3482 201.361 77.3137 203.732 90.6184C204.365 93.887 205.763 96.8749 207.763 99.236C202.878 104.506 198.72 109.617 198.72 109.617V109.922H197.948L198.025 111.011H197.948L198.373 116.918L197.948 125.519C197.948 125.519 197.948 125.611 197.948 125.785V125.829V126.063C197.948 126.063 197.948 126.156 197.948 126.33H197.975C198.117 129.482 198.679 140.816 199.346 143.206C200.132 145.977 200.529 159.662 200.529 159.662C200.529 159.662 201.397 179.004 202.193 181.563C202.988 184.122 201.859 193.414 205.985 195.608C207.192 196.711 208.622 197.417 210.13 197.655C209.919 199.691 210.052 201.166 210.733 201.629C211.024 201.833 211.354 201.945 211.692 201.955C211.412 202.45 211.163 202.969 210.948 203.507C209.31 203.303 207.701 202.851 206.159 202.162C201.726 199.985 187.018 195.085 182.745 198.531C178.473 201.977 168.192 205.102 172.939 218.973C177.687 232.844 179.898 233.192 179.898 233.192C181.36 234.456 182.642 235.991 183.696 237.738C185.121 240.291 198.405 246.132 201.726 246.132C203.138 246.106 204.55 246.19 205.953 246.383C205.953 246.383 202.348 250.15 202.828 252.338C203.308 254.526 201.731 272.045 201.731 272.045C201.731 272.045 205.387 276.432 206.949 270.678L207.004 270.765C207.297 271.239 208.878 273.378 211.852 270.678C213.07 269.578 214.363 268.602 215.718 267.76L230.121 265.332C231.622 265.221 233.128 265.208 234.631 265.294C236.916 265.518 239.159 263.906 240.571 262.66C243.555 264.01 246.909 265.485 248.504 266.024C251.739 267.113 266.608 271.865 270.085 270.379C270.808 270.036 271.451 269.491 271.959 268.789L275.276 268.915L273.722 269.285C273.722 269.285 276.747 269.345 280.86 269.41L280.686 269.53L285.845 269.475C293.394 269.557 301.874 269.584 302.989 269.285C304.735 268.822 313.805 269.149 316.478 269.285H317.223C317.223 269.285 327.189 266.917 323.077 254.869C319.915 245.615 310.195 242.926 305.882 242.185C307.097 241.897 308.144 241.674 308.838 241.543C311.85 240.999 317.698 237.732 318.174 236.616C318.649 235.5 323.552 232.261 324.818 230.416C326.083 228.57 329.698 215.489 326.696 205.815ZM244.149 232.887L243.66 233.078L243.331 233.208L242.7 233.949C242.198 233.546 241.659 233.121 241.097 232.686C242.088 232.757 243.107 232.827 244.149 232.887Z" fill="url(#paint0_linear)"/>
<path d="M273.283 175.488C273.283 175.488 280.275 197.263 284.25 195.086C288.225 192.908 287.147 183.654 287.906 181.117C288.664 178.58 289.505 159.341 289.505 159.341C289.505 159.341 289.889 145.732 290.647 142.977C291.351 140.446 291.922 127.68 292.018 125.671C292.018 125.497 292.018 125.405 292.018 125.405L291.264 109.618L286.996 108.349L277.099 112.704L275.728 122.029L275.193 125.671L274.965 127.223L273.283 175.488Z" fill="#BE6F72"/>
<path opacity="0.1" d="M275.586 171.841C275.586 171.841 282.258 178.346 284.268 178.917C286.279 179.489 287.513 184.563 287.513 184.563" fill="black"/>
<path d="M218.61 176.44C218.61 176.44 211.619 198.216 207.644 196.038C203.668 193.861 204.747 184.606 203.988 182.069C203.23 179.533 202.389 160.294 202.389 160.294C202.389 160.294 202.005 146.685 201.247 143.93C200.543 141.399 199.972 128.633 199.876 126.624C199.876 126.45 199.876 126.357 199.876 126.357L200.634 110.57L204.902 109.302L214.799 113.657L216.17 122.982L216.705 126.624L216.933 128.176L218.61 176.44Z" fill="#BE6F72"/>
<path d="M264.136 59.91H248.531V88.8874H264.136V59.91Z" fill="#3E373A"/>
<path opacity="0.1" d="M264.136 59.91H248.531V88.8874H264.136V59.91Z" fill="black"/>
<path d="M215.869 198.129C215.869 198.129 210.536 205.113 212.515 206.382C214.493 207.65 227.292 231.423 227.292 231.423C227.292 231.423 269.331 237.591 277.259 228.336C285.187 219.082 285.027 202.549 285.027 202.549C285.027 202.549 278.657 204.182 277.963 203.295C277.268 202.408 273.453 198.129 273.453 198.129C273.453 198.129 219.524 194.231 215.869 198.129Z" fill="#4B4B5B"/>
<path opacity="0.02" d="M215.869 198.129C215.869 198.129 210.536 205.113 212.515 206.382C214.493 207.65 227.292 231.423 227.292 231.423C227.292 231.423 269.331 237.591 277.259 228.336C285.187 219.082 285.027 202.549 285.027 202.549C285.027 202.549 278.657 204.182 277.963 203.295C277.268 202.408 273.453 198.129 273.453 198.129C273.453 198.129 219.524 194.231 215.869 198.129Z" fill="black"/>
<path d="M291.548 109.846L277.839 122.911L273.695 123.271L272.173 123.401L246.616 125.633L220.114 123.325L216.17 122.982L211.144 122.547L200.634 110.57C200.634 110.57 208.073 101.076 214.589 94.6688C217.157 92.1374 219.584 90.0906 221.352 89.2849L221.654 89.1597C222.766 88.6429 223.759 87.8181 224.551 86.7535C229.696 80.4332 234.453 64.8367 234.453 64.8367C234.453 64.8367 257.149 50.8678 254.407 69.1917C251.666 87.5156 264.611 82.9864 264.611 82.9864L268.879 85.3054L270.565 86.2255L274.865 88.5717L284.565 93.874C292.178 98.0494 291.548 109.846 291.548 109.846Z" fill="#BE6F72"/>
<path opacity="0.1" d="M245.552 79.7582C256.825 79.7582 265.963 68.8708 265.963 55.4406C265.963 42.0104 256.825 31.123 245.552 31.123C234.279 31.123 225.14 42.0104 225.14 55.4406C225.14 68.8708 234.279 79.7582 245.552 79.7582Z" fill="black"/>
<path opacity="0.1" d="M291.579 127.168H199.876C199.876 126.994 199.876 126.902 199.876 126.902L200.634 111.115C200.634 111.115 208.073 101.621 214.589 95.2132L272.164 92.4913L274.842 89.127L284.543 94.4293C292.16 98.5993 291.547 110.396 291.547 110.396C291.547 110.396 292.589 124.065 291.579 127.168Z" fill="black"/>
<path d="M291.579 126.624H199.876C199.876 126.45 199.876 126.357 199.876 126.357L200.634 110.57C200.634 110.57 208.073 101.076 214.589 94.6688L272.164 91.9469L274.842 88.5826L284.543 93.8849C292.16 98.0549 291.547 109.852 291.547 109.852C291.547 109.852 292.589 123.521 291.579 126.624Z" fill="#E7C7CA"/>
<path opacity="0.1" d="M230.852 82.3549C230.852 82.3549 245.319 104.315 264.588 81.9031C283.857 59.4908 266.722 131.894 266.722 131.894L225.14 137.773L230.852 82.3549Z" fill="black"/>
<path d="M230.852 83.4437C230.852 83.4437 245.319 105.404 264.588 82.9918C283.857 60.5796 266.722 132.982 266.722 132.982L225.14 138.862L230.852 83.4437Z" fill="#E7C7CA"/>
<path opacity="0.1" d="M270.542 87.2979L272.073 115.11L273.713 124.365L274.965 131.442C274.965 131.442 278.164 185.88 277.25 188.602C276.336 191.324 277.707 193.501 277.899 194.949C278.091 196.398 277.707 200.034 277.858 201.667C278.008 203.3 277.858 204.024 274.357 203.442C270.857 202.859 265.977 201.847 265.977 201.847C265.977 201.847 253.64 202.936 249.376 201.123C245.113 199.31 237.039 199.305 237.039 199.305C237.039 199.305 224.852 199.669 220.895 199.125C216.938 198.581 214.8 204.933 212.213 203.115C209.627 201.297 215.257 183.703 217.084 178.618C218.912 173.533 214.649 160.653 214.649 160.653L220.132 124.414L221.352 116.199V90.3736L221.654 90.2484C222.766 89.7317 223.759 88.9069 224.551 87.8423L225.922 113.831L268.874 115.649V86.3997" fill="black"/>
<path d="M270.542 86.2091L272.073 114.022L273.713 123.276L274.965 130.353C274.965 130.353 278.164 184.791 277.25 187.513C276.336 190.235 277.707 192.413 277.899 193.861C278.091 195.309 277.707 198.945 277.858 200.578C278.008 202.212 277.858 202.936 274.357 202.353C270.857 201.771 265.977 200.758 265.977 200.758C265.977 200.758 253.64 201.847 249.376 200.034C245.113 198.221 237.039 198.216 237.039 198.216C237.039 198.216 224.852 198.581 220.895 198.036C216.938 197.492 214.8 203.845 212.213 202.026C209.627 200.208 215.257 182.614 217.084 177.529C218.912 172.445 214.649 159.565 214.649 159.565L220.132 123.325L221.352 115.11V89.2849L221.654 89.1597C222.766 88.6429 223.759 87.8181 224.551 86.7535L225.922 112.742L268.874 114.561V85.3109" fill="#E7C7CA"/>
<path opacity="0.1" d="M275.481 28.167C275.221 27.0293 274.86 25.848 274.111 25.0858C273.395 24.4737 272.569 24.0709 271.698 23.91C269.614 23.257 267.495 22.7733 265.356 22.4619C265.05 21.2531 264.588 20.1088 263.985 19.0704C259.507 11.5362 252.881 4.43198 245.086 2.82605C241.005 1.98226 236.276 2.73895 233.662 6.5714C232.227 8.67816 231.61 11.4708 230.162 13.5395C227.37 17.557 222.33 18.0524 218.812 21.1609C216.933 22.794 215.572 25.1621 214.242 27.4594C212.803 29.9472 211.322 32.5384 210.865 35.5108C209.951 41.45 213.246 47.1116 213.854 53.1052C215.225 66.5134 203.161 78.4081 205.441 91.6366C206.771 99.3505 212.752 104.783 218.939 107.538C221.119 108.512 223.609 109.481 224.628 111.975C225.085 113.063 225.163 114.321 225.593 115.421C227.036 119.09 231.784 119.231 234.334 116.558C236.884 113.886 237.688 109.563 237.989 105.529C239.214 87.913 233.292 70.5091 233.982 52.8493C234.188 47.509 235.449 41.45 239.465 39.0329C244.871 35.7666 251.373 41.2105 257.323 40.1707C260.138 48.3317 260.736 57.3387 259.032 65.9254C258.086 70.6234 256.45 75.1799 256.331 80.0249C256.153 87.4013 259.493 94.1408 262.381 100.662C263.001 101.882 263.415 103.234 263.601 104.642C263.646 106.071 263.423 107.494 262.948 108.806C261.316 114.038 258.502 118.894 258.182 124.463C258.088 125.113 258.211 125.781 258.524 126.325C258.846 126.688 259.262 126.91 259.703 126.956C264.638 127.963 268.906 122.754 271.314 117.522C273.999 111.744 275.563 105.323 275.893 98.7299C276.391 87.6463 273.055 76.7423 273.261 65.6478C273.498 53.0344 278.283 40.334 275.481 28.167Z" fill="black"/>
<path d="M275.938 27.6227C275.678 26.4849 275.317 25.3036 274.567 24.5415C273.852 23.9293 273.025 23.5265 272.155 23.3656C270.071 22.7127 267.952 22.2289 265.812 21.9176C265.507 20.7088 265.044 19.5644 264.442 18.526C259.964 10.9918 253.338 3.8876 245.542 2.28168C241.462 1.43788 236.733 2.19457 234.119 6.02703C232.684 8.13379 232.067 10.9265 230.619 12.9951C227.827 17.0127 222.787 17.5081 219.268 20.6165C217.39 22.2496 216.028 24.6177 214.699 26.915C213.259 29.4028 211.779 31.9941 211.322 34.9664C210.408 40.9056 213.703 46.5672 214.31 52.5608C215.681 65.969 203.618 77.8637 205.898 91.0922C207.228 98.8061 213.209 104.239 219.396 106.994C221.576 107.968 224.066 108.937 225.085 111.43C225.542 112.519 225.62 113.777 226.049 114.876C227.493 118.545 232.241 118.687 234.791 116.014C237.34 113.341 238.145 109.019 238.446 104.985C239.671 87.3687 233.749 69.9647 234.439 52.305C234.644 46.9646 235.906 40.9056 239.922 38.4885C245.328 35.2223 251.83 40.6661 257.779 39.6263C260.595 47.7874 261.192 56.7944 259.488 65.381C258.542 70.0791 256.907 74.6356 256.788 79.4806C256.61 86.8569 259.95 93.5964 262.838 100.118C263.457 101.338 263.872 102.689 264.058 104.098C264.103 105.526 263.88 106.949 263.404 108.262C261.773 113.494 258.958 118.349 258.638 123.918C258.545 124.569 258.668 125.237 258.981 125.78C259.303 126.143 259.719 126.366 260.16 126.412C265.095 127.419 269.363 122.209 271.771 116.978C274.456 111.199 276.02 104.778 276.35 98.1855C276.848 87.1019 273.512 76.1979 273.718 65.1034C273.955 52.4901 278.739 39.7896 275.938 27.6227Z" fill="#3E373A"/>
<path d="M265.844 268.659L283.972 269.35L281.371 253.335L267.485 254.908L265.844 268.659Z" fill="#C3C7D9"/>
<path d="M322.012 230.699C320.792 232.512 316.071 235.778 315.615 236.867C315.158 237.956 309.523 241.222 306.626 241.766C303.729 242.311 294.595 244.673 292.918 245.942C291.716 246.856 282.07 249.753 275.733 251.358C274.016 251.842 272.279 252.215 270.528 252.474C267.786 252.654 237.784 240.498 237.784 240.498L243.569 233.421L243.888 233.29C245.524 232.632 253.082 229.589 257.277 228.141C262.002 226.507 267.485 219.795 267.485 219.795C267.485 219.795 275.554 216.529 276.624 216.164C277.693 215.799 273.882 203.464 273.882 203.464C273.882 203.464 291.397 200.567 298.251 198.112C305.105 195.657 320.947 196.566 323.839 206.186C326.732 215.805 323.25 228.886 322.012 230.699Z" fill="#4B4B5B"/>
<path d="M242.198 261.364C242.198 261.364 238.697 265.719 235.193 265.36C231.688 265.001 219.433 266.449 219.433 266.449C217.212 267.504 215.132 268.94 213.26 270.711C210.395 273.401 208.873 271.256 208.59 270.798L208.539 270.711C207.013 276.433 203.513 272.072 203.513 272.072C203.513 272.072 205.035 254.652 204.569 252.474C204.103 250.297 207.58 246.557 207.58 246.557L211.692 245.31L222.111 242.131L237.039 248.299L242.198 261.364Z" fill="#E7C7CA"/>
<path opacity="0.1" d="M211.674 245.31L208.59 270.798L208.539 270.711C207.013 276.433 203.513 272.072 203.513 272.072C203.513 272.072 205.035 254.652 204.569 252.474C204.102 250.297 207.58 246.557 207.58 246.557L211.674 245.31Z" fill="black"/>
<path opacity="0.1" d="M233.233 172.81C233.233 172.81 241.302 176.076 248.312 172.81H233.233Z" fill="black"/>
<path opacity="0.1" d="M260.781 178.983C260.781 178.983 264.131 180.973 266.722 178.983H260.781Z" fill="black"/>
<path opacity="0.1" d="M260.781 183.708C260.781 183.708 266.416 184.606 267.485 182.793L260.781 183.708Z" fill="black"/>
<path opacity="0.1" d="M258.954 193.861C258.954 193.861 269.537 192.228 272.164 190.05L258.954 193.861Z" fill="black"/>
<path opacity="0.1" d="M226.662 190.05C226.662 190.05 232.602 194.04 237.02 193.861L226.662 190.05Z" fill="black"/>
<path opacity="0.1" d="M275.728 251.358C274.012 251.842 272.274 252.215 270.524 252.474C267.782 252.654 237.779 240.498 237.779 240.498L243.564 233.421L243.884 233.29C244.798 234.058 245.547 234.717 246.082 235.217C248.599 237.58 251.03 234.493 251.944 234.493C252.858 234.493 260.777 242.294 260.777 242.294C260.777 242.294 268.088 244.292 269.308 246.105C270.528 247.918 274.791 247.559 275.55 248.827C275.778 249.219 275.806 250.183 275.728 251.358Z" fill="black"/>
<path d="M219.433 204.204C219.433 204.204 212.04 204.71 207.776 202.571C203.513 200.431 189.348 195.494 185.235 198.962C181.123 202.429 171.221 205.494 175.79 219.289C180.36 233.084 182.494 233.443 182.494 233.443C183.908 234.706 185.142 236.232 186.149 237.961C187.52 240.503 200.314 246.307 203.513 246.307C206.712 246.307 212.346 246.307 220.265 252.839C228.183 259.372 235.344 260.101 235.344 260.101C235.344 260.101 245.396 265.001 248.526 266.089C251.656 267.178 265.959 271.893 269.313 270.445C272.667 268.996 274.796 259.916 274.796 259.916C274.796 259.916 276.318 251.75 275.555 250.482C274.791 249.214 270.528 249.573 269.313 247.76C268.097 245.947 260.782 243.949 260.782 243.949C260.782 243.949 252.881 236.143 251.967 236.143C251.053 236.143 248.622 239.224 246.105 236.867C241.089 232.441 235.82 228.439 230.336 224.891C224.551 221.26 219.433 204.204 219.433 204.204Z" fill="#4B4B5B"/>
<path opacity="0.1" d="M204.569 209.468C205.885 209.148 207.246 209.194 208.545 209.603C209.844 210.012 211.046 210.772 212.058 211.825C215.713 215.456 228.014 222.746 228.014 222.746" fill="black"/>
<path opacity="0.1" d="M295.966 209.24C295.966 209.24 279.667 212.179 276.624 216.17L295.966 209.24Z" fill="black"/>
<path d="M314.701 269.35H313.983C311.406 269.241 302.674 268.915 300.992 269.35C299.014 269.895 272.813 269.35 272.813 269.35L277.935 268.082C277.935 268.082 276.034 260.145 277.241 259.486C277.241 259.486 270.386 254.108 275.554 250.477C280.722 246.846 286.293 248.375 286.293 248.375L299.265 243.138L301.756 242.131C301.756 242.131 316.378 243.04 320.335 255.017C324.292 266.993 314.701 269.35 314.701 269.35Z" fill="#E7C7CA"/>
<path opacity="0.1" d="M314.701 269.35H313.983C318.238 265.169 327.861 252.442 299.265 243.165L301.756 242.158C301.756 242.158 316.378 243.068 320.335 255.044C324.292 267.02 314.701 269.35 314.701 269.35Z" fill="black"/>
<path d="M287.819 255.24C288.26 255.24 288.618 254.813 288.618 254.287C288.618 253.761 288.26 253.335 287.819 253.335C287.377 253.335 287.019 253.761 287.019 254.287C287.019 254.813 287.377 255.24 287.819 255.24Z" fill="#4B4B5B"/>
<path d="M283.172 256.813C283.613 256.813 283.971 256.387 283.971 255.86C283.971 255.334 283.613 254.908 283.172 254.908C282.73 254.908 282.372 255.334 282.372 255.86C282.372 256.387 282.73 256.813 283.172 256.813Z" fill="#4B4B5B"/>
<g opacity="0.1">
<path opacity="0.1" d="M260.53 54.5408C260.707 48.553 259.813 42.5888 257.907 37.0443C251.967 38.1004 245.46 32.6403 240.05 35.9066C236.047 38.3236 234.791 44.3826 234.567 49.723C234.512 51.1329 234.503 52.5429 234.526 53.9528C234.526 53.452 234.526 52.9457 234.567 52.4449C234.777 47.1045 236.033 41.0455 240.05 38.6285C245.46 35.3622 251.958 40.806 257.907 39.7662C259.522 44.4626 260.41 49.4679 260.53 54.5408Z" fill="black"/>
<path opacity="0.1" d="M214.498 53.5461C214.576 52.3599 214.556 51.1674 214.439 49.9859C213.954 45.1953 211.756 40.6171 211.359 35.9463C210.847 41.5806 213.858 46.9918 214.439 52.7078C214.498 53.0018 214.498 53.2631 214.498 53.5461Z" fill="black"/>
<path opacity="0.1" d="M238.574 102.399C238.291 106.438 237.491 110.755 234.919 113.434C232.346 116.112 227.608 115.965 226.177 112.296C225.721 111.207 225.652 109.939 225.209 108.85C224.194 106.357 221.699 105.388 219.52 104.413C213.328 101.653 207.356 96.2474 206.026 88.5118C205.908 87.811 205.827 87.1018 205.784 86.3887C205.672 88.0092 205.753 89.6405 206.026 91.2337C207.356 98.9476 213.337 104.375 219.52 107.135C221.699 108.11 224.194 109.079 225.209 111.572C225.666 112.661 225.743 113.918 226.177 115.018C227.617 118.687 232.364 118.828 234.919 116.156C237.473 113.483 238.268 109.16 238.574 105.121C238.713 102.995 238.761 100.862 238.716 98.7298C238.716 99.9656 238.657 101.185 238.574 102.399Z" fill="black"/>
<path opacity="0.1" d="M273.868 62.523C273.868 63.3123 273.868 64.0962 273.868 64.8801C274.124 54.7546 277.241 44.5747 276.934 34.6615C276.697 43.8289 274.042 53.2032 273.868 62.523Z" fill="black"/>
<path opacity="0.1" d="M264.062 103.482C264.175 102.836 264.21 102.175 264.168 101.517C263.984 100.108 263.569 98.7561 262.948 97.5376C260.306 91.5494 257.295 85.4197 256.939 78.7728C256.939 79.0558 256.907 79.3171 256.902 79.622C256.719 86.9929 260.06 93.7378 262.948 100.26C263.438 101.27 263.813 102.354 264.062 103.482Z" fill="black"/>
<path opacity="0.1" d="M276.496 95.6051C276.155 102.2 274.579 108.621 271.885 114.397C269.473 119.629 265.209 124.838 260.27 123.831C259.827 123.786 259.411 123.561 259.091 123.194C258.998 123.07 258.925 122.926 258.876 122.77C258.821 123.194 258.776 123.624 258.748 124.06C258.654 124.708 258.777 125.375 259.091 125.916C259.411 126.283 259.827 126.508 260.27 126.553C265.209 127.56 269.473 122.351 271.885 117.119C274.579 111.343 276.155 104.922 276.496 98.327C276.551 97.0532 276.555 95.7848 276.523 94.5164C276.514 94.8811 276.514 95.2404 276.496 95.6051Z" fill="black"/>
</g>
<path opacity="0.1" d="M277.241 259.486C277.241 259.486 288.806 265.267 296.432 252.474" stroke="black" stroke-miterlimit="10"/>
<path opacity="0.1" d="M279.516 269.59C279.516 269.59 288.961 262.273 300.992 269.35" stroke="black" stroke-miterlimit="10"/>
<path opacity="0.1" d="M216.294 267.929C216.294 267.929 220.26 257.271 230.852 265.398" stroke="black" stroke-miterlimit="10"/>
<path opacity="0.1" d="M203.435 110.298L211.523 101.588C211.523 101.588 242.883 99.1382 244.181 111.839C244.181 111.839 255.298 96.781 278.68 100.134L288.573 109.52L261.229 123.815L234.658 134.795L215.087 124.359L203.435 110.298Z" fill="black"/>
<path d="M203.435 110.842L211.523 102.132C211.523 102.132 242.883 99.6826 244.181 112.383C244.181 112.383 255.298 97.3254 278.68 100.679L288.573 110.064L261.229 124.359L234.658 135.34L215.087 124.904L203.435 110.842Z" fill="#D5D6DB"/>
<path opacity="0.1" d="M199.857 111.931L203.435 162.924L241.361 165.194L239.716 114.419L239.685 113.564L199.857 111.931Z" fill="black"/>
<path d="M199.857 110.842L203.435 161.835L241.361 164.105L239.716 113.33L239.685 112.476L199.857 110.842Z" fill="#EAAB23"/>
<path opacity="0.1" d="M290.309 110.842L251.186 117.832V169.053L289.418 162.472L290.309 110.842Z" fill="black"/>
<path d="M290.309 109.754L251.186 116.744V167.964L289.418 161.383L290.309 109.754Z" fill="#EAAB23"/>
<path opacity="0.3" d="M281.084 122.253L259.95 125.051L260.412 133.63L281.07 130.941L281.084 122.253Z" fill="white"/>
<path d="M205.492 189.141L207.644 196.038C207.644 196.038 210.842 199.305 214.343 197.671C217.843 196.038 220.895 195.227 222.417 193.638C223.938 192.048 226.072 184.062 226.072 184.062C226.072 184.062 228.206 175.352 230.336 173.174C232.465 170.997 238.104 140.996 230.336 143.93C222.568 146.864 216.627 174.083 216.627 174.083C216.627 174.083 215.256 176.076 213.278 176.261C211.299 176.446 207.338 175.896 206.575 177.894C205.811 179.892 203.207 185.151 205.492 189.141Z" fill="#BE6F72"/>
<path opacity="0.1" d="M251.186 117.827C249.182 118.365 247.102 118.336 245.109 117.745C243.117 117.153 241.269 116.014 239.712 114.419L241.361 165.188C241.361 165.188 245.245 170.197 251.186 169.053V117.827Z" fill="black"/>
<path d="M251.186 116.738C249.182 117.276 247.102 117.248 245.109 116.656C243.117 116.064 241.269 114.925 239.712 113.33L241.361 164.099C241.361 164.099 245.245 169.108 251.186 167.965V116.738Z" fill="#EAAB23"/>
<path opacity="0.1" d="M251.186 116.738C249.182 117.276 247.102 117.248 245.109 116.656C243.117 116.064 241.269 114.925 239.712 113.33L241.361 164.099C241.361 164.099 245.245 169.108 251.186 167.965V116.738Z" fill="black"/>
<path opacity="0.1" d="M252.099 111.017C252.099 111.017 268.015 105.219 272.164 106.036L252.099 111.017Z" fill="black"/>
<path opacity="0.1" d="M234.297 108.485C234.297 108.485 218.871 104.13 216.294 105.366L234.297 108.485Z" fill="black"/>
<path opacity="0.1" d="M262.134 111.741C262.134 111.741 272.776 107.092 276.624 109.302L262.134 111.741Z" fill="black"/>
<path opacity="0.1" d="M256.774 228.364C258.423 226.888 260.179 225.589 262.02 224.482C264.761 222.909 269.788 218.826 269.788 218.826" fill="black"/>
<path opacity="0.1" d="M216.294 172.81C216.294 172.81 209.618 179.315 207.612 179.886C205.606 180.458 204.368 185.532 204.368 185.532" fill="black"/>
<path d="M286.384 188.172L284.255 195.086C284.255 195.086 281.056 198.352 277.551 196.719C274.047 195.086 271.003 194.275 269.477 192.685C267.951 191.095 265.822 183.109 265.822 183.109C265.822 183.109 263.692 174.399 261.558 172.222C259.424 170.044 253.79 140.043 261.558 142.977C269.326 145.912 275.267 173.131 275.267 173.131C275.267 173.131 276.637 175.123 278.616 175.308C280.595 175.493 284.556 174.944 285.319 176.941C286.082 178.939 288.669 184.198 286.384 188.172Z" fill="#BE6F72"/>
<path opacity="0.1" d="M282.651 175.455C282.651 175.455 287.015 178.798 286.996 182.793L282.651 175.455Z" fill="black"/>
<path d="M245.625 78.566C256.898 78.566 266.036 67.6787 266.036 54.2484C266.036 40.8182 256.898 29.9308 245.625 29.9308C234.352 29.9308 225.213 40.8182 225.213 54.2484C225.213 67.6787 234.352 78.566 245.625 78.566Z" fill="#BE6F72"/>
<path d="M232.808 47.7212C235.284 47.2585 237.455 45.5437 239.822 44.5584C245.118 42.3427 250.976 43.8616 256.336 45.8594C258.392 46.627 260.48 47.4926 262.637 47.4926C264.793 47.4926 267.083 46.4419 268.184 44.2263C269.198 42.1903 269.002 39.5446 268.147 37.4052C267.293 35.2658 265.863 33.5455 264.419 31.9232C259.667 26.5774 253.772 21.58 247.252 22.1244C244.629 22.3476 242.12 23.4635 239.707 24.6993C236.67 26.259 233.712 28.0332 230.852 30.0125C228.654 31.5313 224.583 33.5618 223.317 36.3382C220.438 42.5931 228.33 48.5596 232.808 47.7212Z" fill="#3E373A"/>
<path opacity="0.1" d="M268.184 41.9399C267.083 44.1556 264.794 45.2063 262.637 45.2063C260.48 45.2063 258.392 44.3733 256.331 43.6058C250.971 41.6079 245.118 40.0836 239.817 42.3047C237.455 43.29 235.28 45.0266 232.803 45.4621C229.193 46.1372 223.381 42.3918 222.75 37.6284C222.042 43.1321 228.782 47.8465 232.803 47.0953C235.28 46.6325 237.455 44.9177 239.817 43.9378C245.118 41.7167 250.971 43.241 256.331 45.2389C258.392 46.0065 260.476 46.8721 262.637 46.8394C264.798 46.8067 267.083 45.7942 268.184 43.5731C268.755 42.3648 268.98 40.9677 268.824 39.5936C268.753 40.4209 268.535 41.2207 268.184 41.9399Z" fill="black"/>
<path d="M433.83 336.968C433.83 336.968 436.54 341.187 432.578 347.562C428.616 353.936 425.354 359.315 426.67 363.289C426.67 363.289 432.647 351.454 437.508 351.285C442.37 351.117 439.172 344.083 433.83 336.968Z" fill="#EAAB23"/>
<path opacity="0.1" d="M433.83 336.968C434.066 337.376 434.252 337.821 434.383 338.291C439.126 344.932 441.658 351.133 437.093 351.285C432.843 351.432 427.748 360.485 426.528 362.766C426.567 362.951 426.614 363.132 426.67 363.311C426.67 363.311 432.647 351.476 437.509 351.307C442.37 351.138 439.172 344.083 433.83 336.968Z" fill="black"/>
<path d="M438.856 342.347C438.856 343.833 438.715 345.036 438.546 345.036C438.377 345.036 438.23 343.833 438.23 342.347C438.23 340.861 438.404 341.563 438.578 341.563C438.751 341.563 438.856 340.861 438.856 342.347Z" fill="#FFD037"/>
<path d="M440.588 344.121C439.496 344.829 438.541 345.259 438.459 345.079C438.377 344.9 439.195 344.176 440.287 343.446C441.379 342.717 440.949 343.25 441.032 343.446C441.114 343.642 441.685 343.408 440.588 344.121Z" fill="#FFD037"/>
<path d="M419.509 336.968C419.509 336.968 416.8 341.187 420.762 347.562C424.723 353.936 427.986 359.315 426.665 363.289C426.665 363.289 420.693 351.454 415.827 351.285C410.96 351.117 414.182 344.083 419.509 336.968Z" fill="#EAAB23"/>
<path opacity="0.1" d="M419.509 336.968C419.273 337.376 419.087 337.821 418.957 338.291C414.214 344.932 411.682 351.133 416.247 351.285C420.492 351.432 425.591 360.485 426.811 362.766C426.773 362.951 426.724 363.133 426.665 363.311C426.665 363.311 420.693 351.476 415.827 351.307C410.96 351.138 414.182 344.083 419.509 336.968Z" fill="black"/>
<path d="M414.474 342.347C414.474 343.833 414.611 345.036 414.785 345.036C414.959 345.036 415.1 343.833 415.1 342.347C415.1 340.861 414.922 341.563 414.753 341.563C414.584 341.563 414.474 340.861 414.474 342.347Z" fill="#FFD037"/>
<path d="M412.747 344.121C413.839 344.829 414.794 345.259 414.876 345.079C414.958 344.9 414.14 344.176 413.048 343.446C411.956 342.717 412.386 343.25 412.304 343.446C412.221 343.642 411.65 343.408 412.747 344.121Z" fill="#FFD037"/>
<path opacity="0.1" d="M426.67 395.582C442.316 395.582 455 393.264 455 390.405C455 387.545 442.316 385.228 426.67 385.228C411.023 385.228 398.339 387.545 398.339 390.405C398.339 393.264 411.023 395.582 426.67 395.582Z" fill="#EAAB23"/>
<path d="M441.251 357.6L441.114 358.917L440.922 360.779L440.844 361.558L440.652 363.42L440.57 364.198L440.382 366.054L438.212 387.231C438.02 389.12 435.429 390.595 432.299 390.595H421.035C417.905 390.595 415.319 389.12 415.123 387.231L412.952 366.054L412.76 364.198L412.683 363.42L412.491 361.558L412.408 360.779L412.221 358.917L412.084 357.6C411.979 356.511 413.377 355.629 415.15 355.629H438.189C439.958 355.629 441.36 356.528 441.251 357.6Z" fill="#65617D"/>
<path d="M441.114 358.918L440.926 360.779H412.413L412.221 358.918H441.114Z" fill="#9D9CB5"/>
<path d="M440.844 361.558L440.657 363.42H412.683L412.491 361.558H440.844Z" fill="#9D9CB5"/>
<path d="M440.574 364.198L440.383 366.06H412.952L412.765 364.198H440.574Z" fill="#9D9CB5"/>
<defs>
<linearGradient id="paint0_linear" x1="249.783" y1="273.662" x2="249.783" y2="0.425095" gradientUnits="userSpaceOnUse">
<stop stop-color="#808080" stop-opacity="0.25"/>
<stop offset="0.54" stop-color="#808080" stop-opacity="0.12"/>
<stop offset="1" stop-color="#808080" stop-opacity="0.1"/>
</linearGradient>
</defs>
</svg>
