<svg width="426" height="490" viewBox="0 0 426 490" fill="none" xmlns="http://www.w3.org/2000/svg">
    <path
        d="M420.649 0H25.5771V490H420.649C422.068 490 423.429 489.497 424.433 488.602C425.436 487.707 426 486.493 426 485.227V4.77272C426 3.50693 425.436 2.29299 424.433 1.39794C423.429 0.502883 422.068 2.71989e-05 420.649 0ZM47.8724 476.477C45.9322 476.477 44.0355 475.964 42.4223 475.003C40.809 474.041 39.5517 472.675 38.8092 471.076C38.0667 469.477 37.8724 467.718 38.251 466.02C38.6295 464.323 39.5638 462.764 40.9357 461.54C42.3077 460.316 44.0556 459.483 45.9586 459.145C47.8615 458.808 49.8339 458.981 51.6265 459.643C53.419 460.306 54.9511 461.427 56.029 462.866C57.107 464.305 57.6823 465.997 57.6823 467.727C57.6823 468.876 57.4286 470.014 56.9356 471.076C56.4426 472.137 55.72 473.102 54.8091 473.914C53.8981 474.727 52.8167 475.371 51.6265 475.811C50.4363 476.251 49.1606 476.477 47.8724 476.477ZM47.8724 431.932C45.9322 431.932 44.0355 431.419 42.4223 430.457C40.8091 429.496 39.5517 428.129 38.8092 426.53C38.0667 424.931 37.8725 423.172 38.251 421.475C38.6295 419.777 39.5638 418.218 40.9357 416.995C42.3077 415.771 44.0556 414.938 45.9586 414.6C47.8615 414.262 49.8339 414.436 51.6265 415.098C53.419 415.76 54.9511 416.882 56.029 418.321C57.107 419.759 57.6823 421.451 57.6823 423.182C57.6823 424.331 57.4286 425.469 56.9356 426.53C56.4426 427.592 55.72 428.556 54.8091 429.369C53.8981 430.182 52.8167 430.826 51.6265 431.266C50.4363 431.706 49.1606 431.932 47.8724 431.932ZM47.8724 387.386C45.9322 387.386 44.0355 386.873 42.4223 385.912C40.8091 384.95 39.5517 383.584 38.8092 381.985C38.0667 380.386 37.8725 378.627 38.251 376.929C38.6295 375.232 39.5638 373.673 40.9357 372.449C42.3077 371.225 44.0556 370.392 45.9586 370.054C47.8615 369.717 49.8339 369.89 51.6265 370.552C53.419 371.215 54.9511 372.336 56.029 373.775C57.107 375.214 57.6823 376.906 57.6823 378.636C57.6823 379.785 57.4286 380.923 56.9356 381.985C56.4426 383.046 55.72 384.011 54.8091 384.824C53.8981 385.636 52.8167 386.281 51.6265 386.72C50.4363 387.16 49.1606 387.386 47.8724 387.386ZM47.8724 342.841C45.9322 342.841 44.0355 342.328 42.4223 341.366C40.8091 340.405 39.5517 339.038 38.8092 337.439C38.0667 335.841 37.8725 334.081 38.251 332.384C38.6295 330.687 39.5638 329.127 40.9357 327.904C42.3077 326.68 44.0556 325.847 45.9586 325.509C47.8615 325.171 49.8339 325.345 51.6265 326.007C53.419 326.669 54.9511 327.791 56.029 329.23C57.107 330.669 57.6823 332.36 57.6823 334.091C57.6823 335.24 57.4286 336.378 56.9356 337.439C56.4426 338.501 55.72 339.466 54.8091 340.278C53.8981 341.091 52.8167 341.735 51.6265 342.175C50.4363 342.615 49.1606 342.841 47.8724 342.841ZM47.8724 298.295C45.9322 298.295 44.0355 297.782 42.4223 296.821C40.8091 295.859 39.5517 294.493 38.8092 292.894C38.0667 291.295 37.8725 289.536 38.251 287.838C38.6295 286.141 39.5638 284.582 40.9357 283.358C42.3077 282.135 44.0556 281.301 45.9586 280.964C47.8615 280.626 49.8339 280.799 51.6265 281.462C53.419 282.124 54.9511 283.245 56.029 284.684C57.107 286.123 57.6823 287.815 57.6823 289.545C57.6823 290.695 57.4286 291.832 56.9356 292.894C56.4426 293.956 55.72 294.92 54.8091 295.733C53.8981 296.545 52.8167 297.19 51.6265 297.629C50.4363 298.069 49.1606 298.295 47.8724 298.295ZM47.8724 253.75C45.9322 253.75 44.0355 253.237 42.4223 252.275C40.8091 251.314 39.5517 249.947 38.8092 248.348C38.0667 246.75 37.8725 244.99 38.251 243.293C38.6295 241.596 39.5638 240.037 40.9357 238.813C42.3077 237.589 44.0556 236.756 45.9586 236.418C47.8615 236.08 49.8339 236.254 51.6265 236.916C53.419 237.578 54.9511 238.7 56.029 240.139C57.107 241.578 57.6823 243.269 57.6823 245C57.6823 246.149 57.4286 247.287 56.9356 248.348C56.4426 249.41 55.72 250.375 54.8091 251.187C53.8981 252 52.8167 252.644 51.6265 253.084C50.4363 253.524 49.1606 253.75 47.8724 253.75ZM47.8724 209.205C45.9322 209.205 44.0355 208.691 42.4223 207.73C40.8091 206.768 39.5517 205.402 38.8092 203.803C38.0667 202.204 37.8725 200.445 38.251 198.747C38.6295 197.05 39.5638 195.491 40.9357 194.267C42.3077 193.044 44.0556 192.21 45.9586 191.873C47.8615 191.535 49.8339 191.708 51.6265 192.371C53.419 193.033 54.9511 194.154 56.029 195.593C57.107 197.032 57.6823 198.724 57.6823 200.455C57.6823 201.604 57.4286 202.741 56.9356 203.803C56.4426 204.865 55.72 205.829 54.8091 206.642C53.8981 207.454 52.8167 208.099 51.6265 208.538C50.4363 208.978 49.1606 209.205 47.8724 209.205ZM47.8724 164.659C45.9322 164.659 44.0355 164.146 42.4223 163.184C40.8091 162.223 39.5517 160.856 38.8092 159.258C38.0667 157.659 37.8725 155.899 38.251 154.202C38.6295 152.505 39.5638 150.946 40.9357 149.722C42.3077 148.498 44.0556 147.665 45.9586 147.327C47.8615 146.99 49.8339 147.163 51.6265 147.825C53.419 148.487 54.9511 149.609 56.029 151.048C57.107 152.487 57.6823 154.178 57.6823 155.909C57.6823 157.058 57.4286 158.196 56.9356 159.258C56.4426 160.319 55.72 161.284 54.8091 162.096C53.8981 162.909 52.8167 163.553 51.6265 163.993C50.4363 164.433 49.1606 164.659 47.8724 164.659ZM47.8724 120.114C45.9322 120.114 44.0355 119.6 42.4223 118.639C40.8091 117.678 39.5517 116.311 38.8092 114.712C38.0667 113.113 37.8725 111.354 38.251 109.657C38.6295 107.959 39.5638 106.4 40.9357 105.176C42.3077 103.953 44.0556 103.119 45.9586 102.782C47.8615 102.444 49.8339 102.617 51.6265 103.28C53.419 103.942 54.9511 105.063 56.029 106.502C57.107 107.941 57.6823 109.633 57.6823 111.364C57.6823 112.513 57.4286 113.651 56.9356 114.712C56.4426 115.774 55.72 116.738 54.8091 117.551C53.8981 118.363 52.8167 119.008 51.6265 119.448C50.4363 119.887 49.1606 120.114 47.8724 120.114ZM47.8724 75.5682C45.9322 75.5682 44.0355 75.055 42.4223 74.0936C40.809 73.1321 39.5517 71.7655 38.8092 70.1667C38.0667 68.5678 37.8724 66.8085 38.251 65.1112C38.6295 63.4138 39.5638 61.8547 40.9357 60.631C42.3077 59.4073 44.0556 58.5739 45.9586 58.2363C47.8615 57.8987 49.8339 58.0719 51.6265 58.7342C53.419 59.3965 54.9511 60.518 56.029 61.9569C57.107 63.3959 57.6823 65.0876 57.6823 66.8182C57.6823 67.9672 57.4286 69.1051 56.9356 70.1667C56.4426 71.2283 55.72 72.1929 54.8091 73.0054C53.8981 73.8179 52.8167 74.4624 51.6265 74.9022C50.4363 75.3419 49.1606 75.5682 47.8724 75.5682ZM47.8724 31.0227C45.9322 31.0227 44.0355 30.5096 42.4223 29.5481C40.809 28.5866 39.5517 27.2201 38.8092 25.6212C38.0667 24.0224 37.8724 22.263 38.251 20.5657C38.6295 18.8683 39.5638 17.3093 40.9357 16.0855C42.3077 14.8618 44.0556 14.0285 45.9586 13.6908C47.8615 13.3532 49.8339 13.5265 51.6265 14.1888C53.419 14.851 54.9511 15.9726 56.029 17.4115C57.107 18.8504 57.6823 20.5421 57.6823 22.2727C57.6823 23.4218 57.4286 24.5596 56.9356 25.6212C56.4426 26.6828 55.72 27.6474 54.8091 28.4599C53.8981 29.2724 52.8167 29.917 51.6265 30.3567C50.4363 30.7964 49.1606 31.0227 47.8724 31.0227Z"
        fill="url(#paint0_linear)" />
    <path
        d="M25.8625 26.2129C23.2154 26.2129 0 26.1014 0 22.2356C0 18.3698 23.2154 18.2583 25.8625 18.2583V19.8492C12.1889 19.8492 3.32272 21.2145 1.89487 22.2356C3.32272 23.2567 12.1889 24.6219 25.8625 24.6219C39.5056 24.6219 48.3626 23.2625 49.8203 22.2426C49.1266 21.8056 46.2928 20.8898 38.6919 20.3037L38.8454 18.719C51.725 19.7117 51.725 21.5454 51.725 22.2356C51.725 26.1014 28.5096 26.2129 25.8625 26.2129Z"
        fill="#2F2E41" />
    <path
        d="M25.8625 70.7955C23.2154 70.7955 0 70.684 0 66.8182C0 62.9524 23.2154 62.8409 25.8625 62.8409V64.4319C12.1889 64.4319 3.32272 65.7971 1.89487 66.8182C3.32272 67.8393 12.1889 69.2046 25.8625 69.2046C39.5056 69.2046 48.3626 67.8451 49.8203 66.8252C49.1266 66.3883 46.2928 65.4724 38.6919 64.8864L38.8454 63.3017C51.725 64.2944 51.725 66.1281 51.725 66.8183C51.725 70.684 28.5096 70.7955 25.8625 70.7955Z"
        fill="#2F2E41" />
    <path
        d="M25.8625 115.341C23.2154 115.341 0 115.229 0 111.364C0 107.498 23.2154 107.386 25.8625 107.386V108.977C12.1889 108.977 3.32272 110.342 1.89487 111.364C3.32272 112.385 12.1889 113.75 25.8625 113.75C39.5056 113.75 48.3626 112.391 49.8203 111.371C49.1266 110.934 46.2928 110.018 38.6919 109.432L38.8454 107.847C51.725 108.84 51.725 110.673 51.725 111.364C51.725 115.229 28.5096 115.341 25.8625 115.341Z"
        fill="#2F2E41" />
    <path
        d="M25.8625 159.886C23.2154 159.886 0 159.775 0 155.909C0 152.043 23.2154 151.932 25.8625 151.932V153.523C12.1889 153.523 3.32272 154.888 1.89487 155.909C3.32272 156.93 12.1889 158.295 25.8625 158.295C39.5056 158.295 48.3626 156.936 49.8203 155.916C49.1266 155.479 46.2928 154.563 38.6919 153.977L38.8454 152.393C51.725 153.385 51.725 155.219 51.725 155.909C51.725 159.775 28.5096 159.886 25.8625 159.886Z"
        fill="#2F2E41" />
    <path
        d="M25.8625 204.432C23.2154 204.432 0 204.32 0 200.455C0 196.589 23.2154 196.477 25.8625 196.477V198.068C12.1889 198.068 3.32272 199.433 1.89487 200.455C3.32272 201.476 12.1889 202.841 25.8625 202.841C39.5056 202.841 48.3626 201.481 49.8203 200.462C49.1266 200.025 46.2928 199.109 38.6919 198.523L38.8454 196.938C51.725 197.931 51.725 199.764 51.725 200.455C51.725 204.32 28.5096 204.432 25.8625 204.432Z"
        fill="#2F2E41" />
    <path
        d="M25.8625 248.977C23.2154 248.977 0 248.866 0 245C0 241.134 23.2154 241.023 25.8625 241.023V242.614C12.1889 242.614 3.32272 243.979 1.89487 245C3.32272 246.021 12.1889 247.386 25.8625 247.386C39.5056 247.386 48.3626 246.027 49.8203 245.007C49.1266 244.57 46.2928 243.654 38.6919 243.068L38.8454 241.483C51.725 242.476 51.725 244.31 51.725 245C51.725 248.866 28.5096 248.977 25.8625 248.977Z"
        fill="#2F2E41" />
    <path
        d="M25.8625 293.523C23.2154 293.523 0 293.411 0 289.545C0 285.68 23.2154 285.568 25.8625 285.568V287.159C12.1889 287.159 3.32272 288.524 1.89487 289.545C3.32272 290.567 12.1889 291.932 25.8625 291.932C39.5056 291.932 48.3626 290.572 49.8203 289.552C49.1266 289.115 46.2928 288.2 38.6919 287.613L38.8454 286.029C51.725 287.022 51.725 288.855 51.725 289.545C51.725 293.411 28.5096 293.523 25.8625 293.523Z"
        fill="#2F2E41" />
    <path
        d="M25.8625 338.068C23.2154 338.068 0 337.957 0 334.091C0 330.225 23.2154 330.114 25.8625 330.114V331.705C12.1889 331.705 3.32272 333.07 1.89487 334.091C3.32272 335.112 12.1889 336.477 25.8625 336.477C39.5056 336.477 48.3626 335.118 49.8203 334.098C49.1266 333.661 46.2928 332.745 38.6919 332.159L38.8454 330.574C51.725 331.567 51.725 333.401 51.725 334.091C51.725 337.957 28.5096 338.068 25.8625 338.068Z"
        fill="#2F2E41" />
    <path
        d="M25.8625 382.614C23.2154 382.614 0 382.502 0 378.636C0 374.771 23.2154 374.659 25.8625 374.659V376.25C12.1889 376.25 3.32272 377.615 1.89487 378.636C3.32272 379.657 12.1889 381.023 25.8625 381.023C39.5056 381.023 48.3626 379.663 49.8203 378.643C49.1266 378.206 46.2928 377.291 38.6919 376.704L38.8454 375.12C51.725 376.112 51.725 377.946 51.725 378.636C51.725 382.502 28.5096 382.614 25.8625 382.614Z"
        fill="#2F2E41" />
    <path
        d="M25.8625 427.159C23.2154 427.159 0 427.048 0 423.182C0 419.316 23.2154 419.205 25.8625 419.205V420.795C12.1889 420.795 3.32272 422.161 1.89487 423.182C3.32272 424.203 12.1889 425.568 25.8625 425.568C39.5056 425.568 48.3626 424.209 49.8203 423.189C49.1266 422.752 46.2928 421.836 38.6919 421.25L38.8454 419.665C51.725 420.658 51.725 422.492 51.725 423.182C51.725 427.048 28.5096 427.159 25.8625 427.159Z"
        fill="#2F2E41" />
    <path
        d="M25.8625 471.705C23.2154 471.705 0 471.593 0 467.727C0 463.861 23.2154 463.75 25.8625 463.75V465.341C12.1889 465.341 3.32272 466.706 1.89487 467.727C3.32272 468.748 12.1889 470.114 25.8625 470.114C39.5056 470.114 48.3626 468.754 49.8203 467.734C49.1266 467.297 46.2928 466.381 38.6919 465.795L38.8454 464.211C51.725 465.203 51.725 467.037 51.725 467.727C51.725 471.593 28.5096 471.705 25.8625 471.705Z"
        fill="#2F2E41" />
    <defs>
        <linearGradient id="paint0_linear" x1="409.843" y1="0.353967" x2="90.6636" y2="515.198"
            gradientUnits="userSpaceOnUse">
            <stop stop-color="#667CBF" />
            <stop offset="0.671875" stop-color="#3954A5" stop-opacity="0.914688" />
            <stop offset="1" stop-color="#425BA8" />
        </linearGradient>
    </defs>
</svg>