<svg xmlns="http://www.w3.org/2000/svg" xmlns:xlink="http://www.w3.org/1999/xlink" viewBox="0 0 500 500">
    <defs>
        <clipPath id="freepik--clip-path--inject-3">
            <path d="M271.67,312.44a39.33,39.33,0,0,0,0,20.4h42.6s-4.48-12.94,0-20.4Z" style="fill:#fff"></path>
        </clipPath>
        <clipPath id="freepik--clip-path-2--inject-3">
            <path d="M272.33,357.11a39.44,39.44,0,0,0,0,20.4h41.94s-4.48-12.94,0-20.4Z" style="fill:#fff"></path>
        </clipPath>
        <clipPath id="freepik--clip-path-3--inject-3">
            <path
                d="M314.27,333.34h-42.6a.5.5,0,0,1-.49-.37,40.37,40.37,0,0,1,0-20.68.5.5,0,0,1,.48-.35h42.6a.51.51,0,0,1,.43.76c-4.31,7.18,0,19.85,0,20a.5.5,0,0,1-.47.66Zm-42.22-1h41.53c-.83-2.68-3.54-12.69-.16-19.4H272A39.75,39.75,0,0,0,272.05,332.34Z"
                style="fill:#263238;clip-path:url(#freepik--clip-path--inject-3)"></path>
        </clipPath>
        <clipPath id="freepik--clip-path-4--inject-3">
            <path
                d="M314.27,378H272.33a.51.51,0,0,1-.48-.38,40.27,40.27,0,0,1,0-20.68.5.5,0,0,1,.47-.34h41.94a.5.5,0,0,1,.43.25.52.52,0,0,1,0,.51c-4.31,7.17,0,19.84,0,20a.51.51,0,0,1-.07.46A.49.49,0,0,1,314.27,378Zm-41.55-1h40.86c-.83-2.69-3.54-12.69-.16-19.4H272.71A39.74,39.74,0,0,0,272.72,377Z"
                style="fill:#263238;clip-path:url(#freepik--clip-path-2--inject-3)"></path>
        </clipPath>
    </defs>
    
    <g id="freepik--Books--inject-3">
        <path
            d="M396.18,204.9h0c-.41,0-40.91-.73-42-.73s-4.55,0-6.15-1.59-5-6.37-5.12-6.58a.54.54,0,0,1-.08-.41l10.5-43.8a.5.5,0,0,1,.6-.37.49.49,0,0,1,.37.6L343.87,195.6c.66.92,3.63,5,4.88,6.27s4.41,1.3,5.44,1.3,36.91.64,41.56.72l8-53.14a.5.5,0,0,1,1,.14l-8.05,53.58A.5.5,0,0,1,396.18,204.9Z"
            style="fill:#263238"></path>
        <path d="M362.59,144.14h0l-3.33-.06a.51.51,0,0,1-.5-.51.54.54,0,0,1,.51-.49l3.34.06a.5.5,0,0,1,0,1Z"
            style="fill:#263238"></path>
        <path
            d="M345.5,196.93a.5.5,0,0,1-.5-.5.5.5,0,0,1,.5-.5l43.75-.14,9.23-51-31.81-.58a.5.5,0,0,1-.49-.5.56.56,0,0,1,.51-.5l32.39.59a.5.5,0,0,1,.38.19.52.52,0,0,1,.11.4l-9.41,52a.49.49,0,0,1-.49.41l-44.17.15Z"
            style="fill:#263238"></path>
        <path
            d="M394,202.36h0l-42.35-1.08a.56.56,0,0,1-.36-.17l-3.62-4a.51.51,0,0,1,0-.71.49.49,0,0,1,.7,0l3.48,3.82,41.7,1.07,7.56-45.81L398,151.11a.49.49,0,0,1,.11-.7.5.5,0,0,1,.7.12l3.32,4.59a.51.51,0,0,1,.08.38l-7.66,46.44A.5.5,0,0,1,394,202.36Z"
            style="fill:#263238"></path>
        <path d="M355.44,199.09h6.13s-1,4.86-1.53,9.45-.77,10.48-.77,10.48l-3.57-6.65L351.35,218Z" style="fill:#263238">
        </path>
        <path
            d="M97.09,209.19a.49.49,0,0,1-.46-.31.51.51,0,0,1,.27-.66l25.89-10.43a45.63,45.63,0,0,0,1.39-4.64c.12-.7-.31-1.75-1.27-3.1-.37-.52-12.62-18.41-14.6-21.29l-29.8,15.1a.49.49,0,0,1-.67-.21.5.5,0,0,1,.22-.68l30.19-15.3a.51.51,0,0,1,.64.16c.15.21,14.45,21.1,14.83,21.64.73,1,1.67,2.53,1.45,3.84s-1.45,4.87-1.5,5a.52.52,0,0,1-.29.31l-26.1,10.51A.46.46,0,0,1,97.09,209.19Z"
            style="fill:#263238"></path>
        <path
            d="M90.88,209.44a.5.5,0,0,1-.41-.22l-1.18-1.72a.5.5,0,0,1,.83-.57l1.18,1.73a.51.51,0,0,1-.13.69A.52.52,0,0,1,90.88,209.44Z"
            style="fill:#263238"></path>
        <path
            d="M88.26,205.61a.5.5,0,0,1-.41-.22L76.42,188.68a.5.5,0,0,1-.07-.41.51.51,0,0,1,.27-.32l29.87-14a.49.49,0,0,1,.62.16l16.07,22.43a.51.51,0,0,1-.11.7.5.5,0,0,1-.7-.12L106.54,175l-29,13.6,11.1,16.23a.5.5,0,0,1-.14.69A.47.47,0,0,1,88.26,205.61Z"
            style="fill:#263238"></path>
        <path
            d="M122,195.88h-.1a.51.51,0,0,1-.39-.59l.68-3.08L107.8,170.78,82,183.41l-1.07,3.16a.51.51,0,0,1-.64.31.5.5,0,0,1-.31-.63l1.14-3.36a.51.51,0,0,1,.25-.29l26.42-12.91a.5.5,0,0,1,.64.17l14.78,22a.47.47,0,0,1,.08.38l-.72,3.29A.5.5,0,0,1,122,195.88Z"
            style="fill:#263238"></path>
        <path d="M120.53,190.78l-2.22-3.12s2.84-1.24,5.37-2.65,5.61-3.4,5.61-3.4l-2.09,4.23,4.43.17Z"
            style="fill:#263238"></path>
        <path
            d="M112.68,286.23h-.06a.53.53,0,0,1-.38-.27l-18.3-35a.53.53,0,0,1,0-.39.51.51,0,0,1,.25-.29l2.07-1a.5.5,0,0,1,.45.89l-1.61.81,17.73,33.93L143,252.77a.46.46,0,0,1,.21-.13l36.77-11.35-18.19-29-1.34.1a.49.49,0,0,1-.54-.46.5.5,0,0,1,.46-.53l1.65-.13a.48.48,0,0,1,.46.23l18.69,29.83a.5.5,0,0,1,0,.44.52.52,0,0,1-.32.31l-37.27,11.49-30.53,32.52A.52.52,0,0,1,112.68,286.23Z"
            style="fill:#263238"></path>
        <path
            d="M113.08,281.46H113a.49.49,0,0,1-.35-.26l-17.5-33.41a.49.49,0,0,1,.13-.62c.08-.07,8.3-6.8,12.18-16.12,3.58-8.6,9.74-12.87,16.48-11.43a.49.49,0,0,1,.33.25l16.31,29.43a.5.5,0,0,1-.55.73c-.27-.06-6.7-1.39-8.15,4.8-1.56,6.62-8.39,15.14-11.67,19.23l-.36.46a59.85,59.85,0,0,1-6.43,6.82A.51.51,0,0,1,113.08,281.46ZM96.21,247.67l17,32.48a59.44,59.44,0,0,0,5.84-6.27l.36-.46c3.24-4,10-12.43,11.47-18.83,1.31-5.56,6.18-5.84,8.32-5.68L123.5,220.54c-6.14-1.19-11.78,2.86-15.13,10.89C104.83,239.93,97.78,246.32,96.21,247.67Z"
            style="fill:#263238"></path>
        <path
            d="M140.13,250a.5.5,0,0,1-.44-.25l-16.31-29.44a.57.57,0,0,1,0-.34c1.18-5.5,7.22-8,19.58-8,10.79,0,15.16-3.43,15.2-3.46a.52.52,0,0,1,.4-.11.51.51,0,0,1,.34.23l18.3,29.83a.51.51,0,0,1-.15.68c-.05,0-1.34.86-8.88,3.24-5.23,1.66-11,1.43-15.65,1.25a49.21,49.21,0,0,0-5.54,0c-4.38.36-6.31,6-6.33,6a.5.5,0,0,1-.43.34Zm-15.78-30,15.71,28.36c.82-1.8,2.94-5.39,6.79-5.71a51.36,51.36,0,0,1,5.66,0c4.56.18,10.24.4,15.31-1.2a78.6,78.6,0,0,0,8.19-2.9l-17.73-28.92c-1.4.91-6.05,3.36-15.37,3.36C131.25,213,125.51,215.2,124.35,220Z"
            style="fill:#263238"></path>
        <path
            d="M125.81,269.52a.5.5,0,0,1-.31-.1.51.51,0,0,1-.08-.71c1.93-2.42,3.46-4.56,4.81-6.45a36.41,36.41,0,0,1,5.2-6.34,24.45,24.45,0,0,1,5.7-3.66.49.49,0,0,1,.65.26.51.51,0,0,1-.26.66,23.72,23.72,0,0,0-5.44,3.5,35.15,35.15,0,0,0-5,6.17c-1.36,1.9-2.9,4-4.85,6.49A.5.5,0,0,1,125.81,269.52Z"
            style="fill:#263238"></path>
        <path
            d="M144.5,250.83a.45.45,0,0,1-.3-.11.5.5,0,0,1-.09-.7,11.77,11.77,0,0,1,7.51-4.17l1.79-.14a69.53,69.53,0,0,0,22.34-5,.5.5,0,0,1,.36.94,71,71,0,0,1-22.62,5.06l-1.78.14a10.81,10.81,0,0,0-6.81,3.79A.53.53,0,0,1,144.5,250.83Z"
            style="fill:#263238"></path>
        <path
            d="M101.55,252.42a.5.5,0,0,1-.37-.84,135.11,135.11,0,0,0,9.5-12.28c5.65-8.06,9.8-11.35,14.33-11.35a.5.5,0,0,1,.5.5.5.5,0,0,1-.5.5c-4.16,0-8.08,3.17-13.51,10.93a139.25,139.25,0,0,1-9.58,12.38A.5.5,0,0,1,101.55,252.42Z"
            style="fill:#263238"></path>
        <path
            d="M104.73,257.59a.5.5,0,0,1-.34-.13.49.49,0,0,1,0-.7,139.26,139.26,0,0,0,9.51-12.29c5.64-8.06,9.79-11.35,14.33-11.35a.51.51,0,0,1,.5.5.5.5,0,0,1-.5.5c-4.17,0-8.08,3.17-13.52,10.93a139.25,139.25,0,0,1-9.58,12.38A.5.5,0,0,1,104.73,257.59Z"
            style="fill:#263238"></path>
        <path
            d="M107.91,262.76a.5.5,0,0,1-.37-.83,139.87,139.87,0,0,0,9.51-12.28c5.64-8.07,9.79-11.36,14.33-11.36a.51.51,0,0,1,.5.5.5.5,0,0,1-.5.5c-4.17,0-8.08,3.17-13.51,10.93a140.28,140.28,0,0,1-9.59,12.38A.49.49,0,0,1,107.91,262.76Z"
            style="fill:#263238"></path>
        <path
            d="M111.09,267.93a.46.46,0,0,1-.33-.13.49.49,0,0,1,0-.7,137.53,137.53,0,0,0,9.51-12.28c5.64-8.07,9.79-11.35,14.33-11.35a.5.5,0,0,1,.5.5.5.5,0,0,1-.5.5c-4.17,0-8.08,3.16-13.51,10.92a136.13,136.13,0,0,1-9.59,12.38A.49.49,0,0,1,111.09,267.93Z"
            style="fill:#263238"></path>
        <path
            d="M130.58,226.57l-.17,0a.51.51,0,0,1-.3-.64c0-.05,1.79-4.71,8-4.71,11.65,0,19.21-1.8,20.21-4.83a.5.5,0,0,1,1,.32c-1.59,4.8-13.94,5.51-21.16,5.51-5.52,0-7,3.88-7.09,4.05A.5.5,0,0,1,130.58,226.57Z"
            style="fill:#263238"></path>
        <path
            d="M134.16,232.53a.52.52,0,0,1-.31-.1.5.5,0,0,1-.08-.7c.12-.16,3-3.78,10.73-3.78,8.31,0,14.48-1.95,18.35-5.82a.5.5,0,0,1,.7,0,.5.5,0,0,1,0,.71C159.5,226.9,153.09,229,144.5,229c-7.18,0-9.92,3.36-9.94,3.39A.5.5,0,0,1,134.16,232.53Z"
            style="fill:#263238"></path>
        <path
            d="M136.55,238.5a.54.54,0,0,1-.21-.05.49.49,0,0,1-.24-.66,10.39,10.39,0,0,1,9.6-5.46c8.36,0,15.68-1.75,19.59-4.67a.49.49,0,0,1,.7.1.51.51,0,0,1-.1.7c-5.87,4.39-16.08,4.87-20.19,4.87a9.42,9.42,0,0,0-8.7,4.88A.49.49,0,0,1,136.55,238.5Z"
            style="fill:#263238"></path>
        <path
            d="M139.33,242.87a.36.36,0,0,1-.14,0,.51.51,0,0,1-.34-.62c.06-.18,1.38-4.32,8.41-4.73a66.22,66.22,0,0,0,21.31-4.73.5.5,0,1,1,.4.91,66.74,66.74,0,0,1-21.65,4.82c-6.29.37-7.46,3.87-7.51,4A.5.5,0,0,1,139.33,242.87Z"
            style="fill:#263238"></path>
        <path
            d="M333,126.08h0a.51.51,0,0,1-.37-.23l-14.08-22.77L291.63,88.41a.48.48,0,0,1-.26-.38.5.5,0,0,1,.16-.43l20.12-18.23a.5.5,0,0,1,.37-.13.49.49,0,0,1,.34.17l1.05,1.2a.5.5,0,0,1-.75.65l-.71-.81L292.72,87.87l26.39,14.39a.66.66,0,0,1,.19.18l13.81,22.33,15.95-16.92-.27-.78a.5.5,0,1,1,.95-.33l.37,1.07a.5.5,0,0,1-.11.51l-16.61,17.61A.51.51,0,0,1,333,126.08Z"
            style="fill:#263238"></path>
        <path
            d="M320.7,100.47a.58.58,0,0,1-.18,0,.51.51,0,0,1-.32-.45c0-.18-.23-4.57-4.44-4.44-4.74.1-11.59-3-14.89-4.45l-.36-.16a41.9,41.9,0,0,1-5.68-3.1.5.5,0,0,1-.22-.38.5.5,0,0,1,.17-.41L314,69.61a.51.51,0,0,1,.64,0,32.28,32.28,0,0,0,12.76,5.28c6.42.91,10.38,4.33,10.59,9.14a.5.5,0,0,1-.15.38l-16.76,16A.52.52,0,0,1,320.7,100.47Zm-4.79-5.93a5.09,5.09,0,0,1,5.14,4.4L337,83.81c-.3-4.23-3.83-7.12-9.72-8a32.36,32.36,0,0,1-12.88-5.23L295.93,87.35a40.53,40.53,0,0,0,5,2.67l.36.16c3.24,1.45,10,4.48,14.46,4.36Z"
            style="fill:#263238"></path>
        <path
            d="M334.19,123a.54.54,0,0,1-.34-.12c-.08-.08-.87-.84-3.72-5.38-2-3.22-2.88-7.12-3.56-10.25a35.75,35.75,0,0,0-.93-3.67c-1-2.76-4.93-3.06-5-3.07a.5.5,0,0,1-.44-.32.52.52,0,0,1,.13-.54l16.76-15.95a.48.48,0,0,1,.32-.13c3.93-.19,6.68,3.45,8.84,11.77,1.86,7.15,4.85,9.4,4.88,9.42a.52.52,0,0,1,.21.36.51.51,0,0,1-.14.39L334.55,122.8A.51.51,0,0,1,334.19,123Zm-12.4-23.33c1.44.31,3.95,1.17,4.79,3.58a32.61,32.61,0,0,1,1,3.78c.67,3.06,1.51,6.86,3.44,9.94a57.15,57.15,0,0,0,3.23,4.79l15.93-16.57c-.95-.91-3.27-3.64-4.83-9.6-1.95-7.51-4.38-11-7.63-11h0Z"
            style="fill:#263238"></path>
        <path
            d="M318.79,101.81a.51.51,0,0,1-.39-.19,16,16,0,0,0-3.24-3,24.8,24.8,0,0,0-4.94-2.27c-1.5-.57-3.2-1.22-5.17-2.1a.5.5,0,0,1-.25-.66.49.49,0,0,1,.66-.25c1.94.86,3.63,1.51,5.11,2.08a25,25,0,0,1,5.16,2.38,17.57,17.57,0,0,1,3.46,3.18.51.51,0,0,1-.09.71A.5.5,0,0,1,318.79,101.81Z"
            style="fill:#263238"></path>
        <path
            d="M332.46,122.84a.51.51,0,0,1-.41-.21,48.89,48.89,0,0,1-7.3-14.21c-.14-.42-.28-.81-.4-1.16a7.38,7.38,0,0,0-3.62-3.79.5.5,0,1,1,.4-.91,8.2,8.2,0,0,1,4.16,4.36c.13.36.26.75.4,1.17a48.15,48.15,0,0,0,7.18,14,.49.49,0,0,1-.12.69A.45.45,0,0,1,332.46,122.84Z"
            style="fill:#263238"></path>
        <path
            d="M332.11,86.76a.5.5,0,0,1-.48-.38c-.71-2.71-3.46-4.74-9.51-7a95,95,0,0,1-9.92-4.24.5.5,0,1,1,.47-.88,97,97,0,0,0,9.79,4.19c6.4,2.37,9.34,4.6,10.14,7.67a.5.5,0,0,1-.36.61Z"
            style="fill:#263238"></path>
        <path
            d="M329.22,89.77a.5.5,0,0,1-.48-.37c-.71-2.72-3.46-4.74-9.51-7a96.12,96.12,0,0,1-9.92-4.25.5.5,0,1,1,.47-.88,93.89,93.89,0,0,0,9.8,4.19c6.39,2.38,9.33,4.6,10.13,7.67a.49.49,0,0,1-.36.61A.3.3,0,0,1,329.22,89.77Z"
            style="fill:#263238"></path>
        <path
            d="M326.33,92.78a.5.5,0,0,1-.48-.37c-.71-2.72-3.46-4.74-9.51-7a95,95,0,0,1-9.92-4.24.5.5,0,1,1,.47-.89,93.89,93.89,0,0,0,9.8,4.19c6.39,2.38,9.33,4.6,10.13,7.68a.5.5,0,0,1-.36.61Z"
            style="fill:#263238"></path>
        <path
            d="M323.44,95.8a.5.5,0,0,1-.48-.38c-.71-2.71-3.46-4.74-9.51-7a95,95,0,0,1-9.92-4.24.51.51,0,0,1-.21-.68.52.52,0,0,1,.68-.21,91.3,91.3,0,0,0,9.8,4.19c6.39,2.38,9.33,4.61,10.13,7.68a.5.5,0,0,1-.36.61Z"
            style="fill:#263238"></path>
        <path
            d="M345.91,107.19h0c-3.39-.23-5.94-7.33-7.48-13.24-.93-3.56-3.67-3.89-3.79-3.9a.5.5,0,0,1-.44-.55.51.51,0,0,1,.54-.45c.15,0,3.55.38,4.66,4.64,2,7.69,4.46,12.36,6.57,12.5a.5.5,0,0,1,.47.53A.51.51,0,0,1,345.91,107.19Z"
            style="fill:#263238"></path>
        <path
            d="M342.7,111.13a.48.48,0,0,1-.26-.07c-3.44-2-5.94-6-7.44-11.71-1.22-4.69-3.86-5.92-3.89-5.93a.5.5,0,0,1,.4-.91c.13,0,3.11,1.38,4.46,6.59,1.43,5.49,3.78,9.22,7,11.1a.5.5,0,0,1,.18.68A.51.51,0,0,1,342.7,111.13Z"
            style="fill:#263238"></path>
        <path
            d="M339.4,113.68a.45.45,0,0,1-.31-.11c-4-3.17-6.07-9.91-6.79-12.67a6.36,6.36,0,0,0-4.63-4.82.5.5,0,0,1-.4-.58.51.51,0,0,1,.58-.41,7.35,7.35,0,0,1,5.42,5.56c1.44,5.53,3.85,10.07,6.44,12.14a.5.5,0,0,1,.08.71A.48.48,0,0,1,339.4,113.68Z"
            style="fill:#263238"></path>
        <path
            d="M336.51,116.7a.52.52,0,0,1-.39-.19,46.28,46.28,0,0,1-7-13.62c-1.3-4-3.73-4.19-3.83-4.19a.51.51,0,0,1-.48-.53.46.46,0,0,1,.52-.47c.13,0,3.22.17,4.74,4.88a46.13,46.13,0,0,0,6.82,13.31.5.5,0,0,1-.09.7A.51.51,0,0,1,336.51,116.7Z"
            style="fill:#263238"></path>
        <path
            d="M154.46,138.11l-.12,0-3.62-.9a.5.5,0,0,1-.3-.75l16.71-26.2a.5.5,0,0,1,.85.54l-16.34,25.61,2.6.65,16.51-24.55a.51.51,0,0,1,.67-.16l26.31,15.17,2.86-2.86-28.75-15a.5.5,0,0,1,.46-.89l29.36,15.36a.48.48,0,0,1,.26.37.48.48,0,0,1-.14.42l-3.61,3.62a.5.5,0,0,1-.6.08l-26.25-15.13-16.45,24.46A.49.49,0,0,1,154.46,138.11Z"
            style="fill:#263238"></path>
        <path
            d="M200.52,169.27a.5.5,0,0,1-.24-.06l-22.13-12.65a.51.51,0,0,1-.25-.35l-7.23-43.36a.51.51,0,0,1,.42-.58.5.5,0,0,1,.57.42l7.19,43.12L200,167.87l-3.09-37.45a.52.52,0,0,1,.46-.54.5.5,0,0,1,.54.46L201,168.73a.48.48,0,0,1-.23.46A.43.43,0,0,1,200.52,169.27Z"
            style="fill:#263238"></path>
        <path
            d="M200.52,169.27a.5.5,0,0,1-.44-.73l3.55-6.65-2.7-37.34a.5.5,0,1,1,1-.07L204.64,162a.6.6,0,0,1-.06.27L201,169A.5.5,0,0,1,200.52,169.27Z"
            style="fill:#263238"></path>
        <path
            d="M163.49,177h-.1a.49.49,0,0,1-.39-.38l-7.68-35.23a.51.51,0,0,1,.39-.6.5.5,0,0,1,.59.39l7.44,34.14L178,155.83a.5.5,0,0,1,.81.59l-14.91,20.33A.48.48,0,0,1,163.49,177Z"
            style="fill:#263238"></path>
        <path
            d="M163.49,177h-.06l-4.06-.45a.5.5,0,0,1-.43-.39l-8.58-39.3a.5.5,0,1,1,1-.21l8.51,38.94,3.7.41a.5.5,0,0,1,0,1Z"
            style="fill:#263238"></path>
        <path
            d="M160.33,144.43a.5.5,0,0,1-.41-.79l11.75-16.26a.48.48,0,0,1,.69-.11.5.5,0,0,1,.12.7l-11.75,16.26A.49.49,0,0,1,160.33,144.43Z"
            style="fill:#263238"></path>
        <path
            d="M161.23,152.11a.52.52,0,0,1-.29-.09.51.51,0,0,1-.11-.7l11.74-16.26a.49.49,0,0,1,.7-.11.5.5,0,0,1,.11.69L161.64,151.9A.49.49,0,0,1,161.23,152.11Z"
            style="fill:#263238"></path>
        <path
            d="M162.13,159.79a.46.46,0,0,1-.29-.1.5.5,0,0,1-.11-.69l11.74-16.26a.5.5,0,0,1,.7-.12.51.51,0,0,1,.11.7l-11.74,16.26A.49.49,0,0,1,162.13,159.79Z"
            style="fill:#263238"></path>
        <path
            d="M163,167.47a.45.45,0,0,1-.29-.1.5.5,0,0,1-.12-.7l11.75-16.26a.5.5,0,0,1,.69-.11.5.5,0,0,1,.12.7l-11.75,16.26A.5.5,0,0,1,163,167.47Z"
            style="fill:#263238"></path>
        <path
            d="M192.85,137.66a.45.45,0,0,1-.25-.07l-15.81-9a.5.5,0,1,1,.5-.87l15.81,9a.51.51,0,0,1,.18.69A.5.5,0,0,1,192.85,137.66Z"
            style="fill:#263238"></path>
        <path
            d="M192.85,144.88a.54.54,0,0,1-.25-.06l-15.81-9a.5.5,0,1,1,.5-.86l15.81,9a.5.5,0,0,1,.18.68A.5.5,0,0,1,192.85,144.88Z"
            style="fill:#263238"></path>
        <path
            d="M195.1,152.56a.53.53,0,0,1-.24-.06l-15.81-9a.5.5,0,0,1-.19-.68.51.51,0,0,1,.69-.19l15.8,9a.49.49,0,0,1,.19.68A.5.5,0,0,1,195.1,152.56Z"
            style="fill:#263238"></path>
        <path d="M195.56,160.24a.45.45,0,0,1-.25-.07l-15.81-9a.5.5,0,1,1,.5-.87l15.81,9a.5.5,0,0,1-.25.93Z"
            style="fill:#263238"></path>
        <path
            d="M392,303a.39.39,0,0,1-.18,0l-30.76-12.32a.49.49,0,0,1-.3-.34.51.51,0,0,1,.1-.44l3.23-4a.51.51,0,0,1,.59-.14l27.64,12.41,13.9-26a.53.53,0,0,1,.51-.26l3.69.54a.48.48,0,0,1,.37.26.5.5,0,0,1,0,.46l-14,27.74a.5.5,0,0,1-.9-.45l13.68-27.12-2.65-.39L393,299a.51.51,0,0,1-.65.22l-27.71-12.44L362.08,290,392.21,302a.51.51,0,0,1,.28.65A.51.51,0,0,1,392,303Z"
            style="fill:#263238"></path>
        <path
            d="M392.56,299.29a.5.5,0,0,1-.49-.36l-11.49-42.19-22.21-9.87,6.84,36.95a.5.5,0,0,1-.4.58.5.5,0,0,1-.58-.4l-7-37.88a.47.47,0,0,1,.18-.48.5.5,0,0,1,.51-.07l23.29,10.36a.5.5,0,0,1,.28.32L393,298.66a.52.52,0,0,1-.35.62Z"
            style="fill:#263238"></path>
        <path
            d="M361.27,290.66a.49.49,0,0,1-.49-.42l-6.48-37a.61.61,0,0,1,0-.27l2.92-7.11a.5.5,0,0,1,.92.38l-2.86,7,6.45,36.88a.5.5,0,0,1-.41.58Z"
            style="fill:#263238"></path>
        <path
            d="M405,269.44a.51.51,0,0,1-.48-.35l-10.84-33.22-12.22,20.77a.5.5,0,0,1-.86-.51l12.78-21.72a.49.49,0,0,1,.49-.24.5.5,0,0,1,.42.34l11.18,34.27a.49.49,0,0,1-.32.63Z"
            style="fill:#263238"></path>
        <path
            d="M410.37,273.43a.5.5,0,0,1-.48-.34L397.51,235.2l-3.73,0a.5.5,0,0,1-.5-.5.52.52,0,0,1,.51-.5l4.09,0a.5.5,0,0,1,.47.35l12.49,38.23a.49.49,0,0,1-.32.63Z"
            style="fill:#263238"></path>
        <path
            d="M390.16,284.56a.45.45,0,0,1-.25-.07.51.51,0,0,1-.19-.68l10-17.36a.51.51,0,0,1,.68-.19.52.52,0,0,1,.19.69l-10.05,17.36A.5.5,0,0,1,390.16,284.56Z"
            style="fill:#263238"></path>
        <path
            d="M388.49,277a.43.43,0,0,1-.25-.07.5.5,0,0,1-.19-.68L398.1,258.9a.5.5,0,1,1,.86.5l-10,17.36A.5.5,0,0,1,388.49,277Z"
            style="fill:#263238"></path>
        <path
            d="M386.81,269.46a.47.47,0,0,1-.25-.07.49.49,0,0,1-.18-.68l10.05-17.36a.5.5,0,0,1,.86.5l-10,17.36A.51.51,0,0,1,386.81,269.46Z"
            style="fill:#263238"></path>
        <path
            d="M385.14,261.91a.47.47,0,0,1-.25-.07.49.49,0,0,1-.18-.68l10-17.36a.51.51,0,0,1,.69-.18.49.49,0,0,1,.18.68l-10.05,17.36A.5.5,0,0,1,385.14,261.91Z"
            style="fill:#263238"></path>
        <path
            d="M385.17,284.61a.46.46,0,0,1-.2-.05l-16.64-7.39a.49.49,0,0,1-.25-.66.5.5,0,0,1,.66-.26l16.63,7.4a.5.5,0,0,1-.2,1Z"
            style="fill:#263238"></path>
        <path d="M384.44,277.42a.65.65,0,0,1-.2,0L367.6,270a.5.5,0,1,1,.41-.91l16.63,7.39a.5.5,0,0,1-.2,1Z"
            style="fill:#263238"></path>
        <path
            d="M381.42,270a.46.46,0,0,1-.2-.05l-16.64-7.39a.49.49,0,0,1-.25-.66.5.5,0,0,1,.66-.26l16.63,7.4a.5.5,0,0,1,.26.66A.51.51,0,0,1,381.42,270Z"
            style="fill:#263238"></path>
        <path
            d="M380.2,262.41a.45.45,0,0,1-.2,0L363.36,255a.5.5,0,1,1,.4-.91l16.64,7.4a.5.5,0,0,1,.26.66A.52.52,0,0,1,380.2,262.41Z"
            style="fill:#263238"></path>
    </g>
</svg>