<svg width="14" height="15" viewBox="0 0 14 15" fill="none" xmlns="http://www.w3.org/2000/svg">
<path d="M13.7812 7.75C13.7539 4.00391 10.7188 0.96875 7 0.96875C5.16797 0.96875 3.52734 1.70703 2.29688 2.85547L0.957031 1.51562C0.683594 1.24219 0.21875 1.43359 0.21875 1.81641V5.78125C0.21875 6.02734 0.410156 6.21875 0.65625 6.21875H4.62109C5.00391 6.21875 5.19531 5.75391 4.92188 5.48047L3.52734 4.08594C4.42969 3.23828 5.66016 2.71875 7 2.71875C9.76172 2.71875 12.0312 4.98828 12.0312 7.75C12.0312 10.5391 9.76172 12.7812 7 12.7812C5.79688 12.7812 4.73047 12.3984 3.85547 11.7148C3.60938 11.4961 3.22656 11.5234 2.98047 11.7695L2.67969 12.0703C2.40625 12.3438 2.43359 12.8086 2.73438 13.0547C3.88281 13.9844 5.38672 14.5586 7 14.5312C10.7188 14.5312 13.7812 11.4961 13.7812 7.75ZM8.83203 9.91016L9.07812 9.55469C9.32422 9.28125 9.26953 8.87109 8.96875 8.65234L7.875 7.77734V4.90625C7.875 4.55078 7.57422 4.25 7.21875 4.25H6.78125C6.39844 4.25 6.125 4.55078 6.125 4.90625V8.625L7.90234 10.0195C8.17578 10.2383 8.58594 10.1836 8.83203 9.91016Z" fill="#676767"/>
</svg>
