<svg width="19" height="21" viewBox="0 0 19 21" fill="none" xmlns="http://www.w3.org/2000/svg">
<path d="M9.75 20.5C11.1172 20.5 12.2109 19.4062 12.2109 18H7.25C7.25 19.4062 8.34375 20.5 9.75 20.5ZM18.1484 14.6797C17.4062 13.8594 15.9609 12.6484 15.9609 8.625C15.9609 5.61719 13.8516 3.19531 10.9609 2.57031V1.75C10.9609 1.08594 10.4141 0.5 9.75 0.5C9.04688 0.5 8.5 1.08594 8.5 1.75V2.57031C5.60938 3.19531 3.5 5.61719 3.5 8.625C3.5 12.6484 2.05469 13.8594 1.3125 14.6797C1.07812 14.9141 0.960938 15.2266 1 15.5C1 16.1641 1.46875 16.75 2.25 16.75H17.2109C17.9922 16.75 18.4609 16.1641 18.5 15.5C18.5 15.2266 18.3828 14.9141 18.1484 14.6797Z" fill="#676767"/>
</svg>
