<svg width="13" height="15" viewBox="0 0 13 15" fill="none" xmlns="http://www.w3.org/2000/svg">
<path d="M6.33203 7.75C8.24609 7.75 9.83203 6.19141 9.83203 4.25C9.83203 2.33594 8.24609 0.75 6.33203 0.75C4.39062 0.75 2.83203 2.33594 2.83203 4.25C2.83203 6.19141 4.39062 7.75 6.33203 7.75ZM8.76562 8.625H8.30078C7.69922 8.92578 7.04297 9.0625 6.33203 9.0625C5.62109 9.0625 4.9375 8.92578 4.33594 8.625H3.87109C1.84766 8.625 0.207031 10.293 0.207031 12.3164V13.4375C0.207031 14.1758 0.78125 14.75 1.51953 14.75H11.1445C11.8555 14.75 12.457 14.1758 12.457 13.4375V12.3164C12.457 10.293 10.7891 8.625 8.76562 8.625Z" fill="#676767"/>
</svg>
